<?xml version="1.0" encoding="UTF-8"?>
<svg version="1.1" xmlns="http://www.w3.org/2000/svg" width="512" height="512">
<path d="M0 0 C1.05248182 -0.00382555 2.10496365 -0.00765109 3.18933886 -0.01159257 C6.70974764 -0.02189657 10.22999252 -0.01793529 13.75041199 -0.01396179 C16.27706045 -0.01830972 18.8037076 -0.02349314 21.33035278 -0.02944946 C27.47763985 -0.04145195 33.62486668 -0.04399178 39.77216319 -0.0416492 C44.77096212 -0.03986418 49.76974781 -0.04161963 54.76854515 -0.04587364 C55.83685646 -0.04676643 55.83685646 -0.04676643 56.92674982 -0.04767724 C58.37374777 -0.04888904 59.82074572 -0.05010317 61.26774367 -0.05131962 C74.83092247 -0.06219029 88.39407638 -0.06003507 101.95725658 -0.05393478 C114.35288504 -0.04876757 126.74843487 -0.0600167 139.14404777 -0.07903299 C151.88408491 -0.0984272 164.62408488 -0.10666452 177.36413687 -0.10290974 C184.51176427 -0.1009999 191.65932476 -0.10346394 198.80694008 -0.11762428 C205.53009689 -0.1308093 212.25307117 -0.12825657 218.97623634 -0.11521339 C221.44086765 -0.1128484 223.90551002 -0.11557949 226.37012863 -0.12383652 C229.74050523 -0.13431197 233.11035498 -0.12619627 236.48071289 -0.11352539 C237.4506743 -0.12089968 238.42063571 -0.12827396 239.41998988 -0.13587171 C252.82667189 -0.03020091 262.05972927 4.94465738 271.68083191 14.01069641 C281.67347018 24.32918159 283.73484354 35.23849676 283.69152832 49.10769653 C283.69535387 50.4051915 283.69917941 51.70268647 283.70312089 53.03949946 C283.71339025 56.63010892 283.71122178 60.22061841 283.70694029 63.81123602 C283.70447111 67.68797035 283.71348967 71.56468072 283.72097778 75.44140625 C283.73372188 83.03249329 283.7355188 90.62354496 283.73317752 98.21464089 C283.73139372 104.38620795 283.73314533 110.55776428 283.73740196 116.72933006 C283.73799715 117.60805928 283.73859234 118.48678849 283.73920557 119.39214587 C283.74041733 121.17736382 283.74163147 122.96258177 283.74284794 124.74779972 C283.75372256 141.48708443 283.75156147 158.226349 283.7454631 174.96563485 C283.74029513 190.27119424 283.75154635 205.57668996 283.77056132 220.88223676 C283.78994516 236.60550522 283.79819468 252.32874358 283.79443806 268.05202407 C283.79252671 276.87638709 283.79500713 285.70069594 283.8091526 294.52504921 C283.8210744 302.03815111 283.8224624 309.5511655 283.81036244 317.06426863 C283.80447909 320.89539213 283.80335912 324.72635562 283.81536484 328.55746841 C283.82824487 332.71602049 283.81774615 336.87419276 283.80505371 341.03274536 C283.812428 342.23616367 283.81980228 343.43958197 283.82740003 344.6794675 C283.73619415 358.89610201 279.36395342 368.23473072 269.68083191 378.51069641 C260.17093878 387.72027713 249.75742511 390.57129512 236.86166382 390.52139282 C235.80918199 390.52521837 234.75670017 390.52904392 233.67232496 390.53298539 C230.15191618 390.54328939 226.63167129 390.53932811 223.11125183 390.53535461 C220.58460337 390.53970255 218.05795622 390.54488597 215.53131104 390.55084229 C209.38402397 390.56284477 203.23679713 390.5653846 197.08950063 390.56304202 C192.0907017 390.561257 187.09191601 390.56301245 182.09311867 390.56726646 C181.02480736 390.56815925 181.02480736 390.56815925 179.934914 390.56907007 C178.48791605 390.57028186 177.0409181 390.57149599 175.59392015 390.57271244 C162.03074135 390.58358311 148.46758743 390.58142789 134.90440724 390.5753276 C122.50877878 390.57016039 110.11322895 390.58140952 97.71761604 390.60042582 C84.97757891 390.61982002 72.23757894 390.62805735 59.49752694 390.62430257 C52.34989955 390.62239272 45.20233906 390.62485676 38.05472374 390.63901711 C31.33156693 390.65220212 24.60859265 390.64964939 17.88542747 390.63660622 C15.42079617 390.63424123 12.95615379 390.63697231 10.49153519 390.64522934 C7.12115859 390.6557048 3.75130884 390.64758909 0.38095093 390.63491821 C-0.58901048 390.6422925 -1.55897189 390.64966678 -2.55832607 390.65726453 C-15.96500807 390.55159373 -25.19806545 385.57673544 -34.81916809 376.51069641 C-44.81180636 366.19221124 -46.87317972 355.28289606 -46.8298645 341.41369629 C-46.83369005 340.11620132 -46.8375156 338.81870636 -46.84145707 337.48189336 C-46.85172643 333.8912839 -46.84955796 330.30077442 -46.84527647 326.7101568 C-46.84280729 322.83342247 -46.85182585 318.9567121 -46.85931396 315.07998657 C-46.87205806 307.48889953 -46.87385498 299.89784787 -46.8715137 292.30675193 C-46.86972991 286.13518487 -46.87148151 279.96362854 -46.87573814 273.79206276 C-46.87633333 272.91333354 -46.87692852 272.03460433 -46.87754175 271.12924695 C-46.87875352 269.344029 -46.87996765 267.55881105 -46.88118412 265.77359311 C-46.89205874 249.03430839 -46.88989766 232.29504383 -46.88379928 215.55575798 C-46.87863131 200.25019859 -46.88988253 184.94470286 -46.9088975 169.63915607 C-46.92828134 153.9158876 -46.93653087 138.19264925 -46.93277425 122.46936876 C-46.93086289 113.64500573 -46.93334331 104.82069688 -46.94748878 95.99634361 C-46.95941058 88.48324171 -46.96079859 80.97022732 -46.94869862 73.4571242 C-46.94281527 69.62600069 -46.9416953 65.7950372 -46.95370102 61.96392441 C-46.96658105 57.80537233 -46.95608233 53.64720007 -46.94338989 49.48864746 C-46.95076418 48.28522916 -46.95813846 47.08181085 -46.96573621 45.84192532 C-46.87453033 31.62529081 -42.50228961 22.2866621 -32.81916809 12.01069641 C-23.30927496 2.8011157 -12.89576129 -0.0499023 0 0 Z M-13.00666809 35.51069641 C-16.76850037 42.13152122 -16.85390381 48.42251003 -16.80967712 55.85919189 C-16.81138597 56.91464583 -16.81309482 57.97009976 -16.81485546 59.05753714 C-16.81814474 62.58748458 -16.80715573 66.11724114 -16.79621887 69.64717102 C-16.79565464 72.18019099 -16.79597156 74.7132113 -16.79710388 77.24623108 C-16.79755904 82.69623166 -16.79189314 88.14617099 -16.7806282 93.59615898 C-16.7643518 101.47584581 -16.75916301 109.3555095 -16.75665222 117.23521132 C-16.75227848 130.02049359 -16.73897807 142.80575029 -16.720047 155.59101868 C-16.7016799 168.00833509 -16.68752746 180.42564454 -16.67903137 192.8429718 C-16.67850593 193.6087906 -16.67798048 194.3746094 -16.67743911 195.16363483 C-16.67482897 199.00564666 -16.67230157 202.84765853 -16.6698153 206.68967044 C-16.64909278 238.54669785 -16.61372697 270.40369315 -16.56916809 302.26069641 C-15.80076284 302.09895967 -15.0323576 301.93722292 -14.24066734 301.77058506 C-9.41866215 301.10091702 -4.68785511 301.1071884 0.17481995 301.10247803 C1.7995965 301.09507106 1.7995965 301.09507106 3.45719683 301.08751446 C7.08691611 301.07215578 10.71661772 301.06378321 14.34635925 301.05537415 C16.94819799 301.04579435 19.55003517 301.03578421 22.15187073 301.02537537 C27.75355166 301.0036449 33.35523498 300.98548791 38.95693588 300.96977043 C47.05601557 300.94704052 55.15506939 300.91890205 63.2541271 300.88945115 C76.39488576 300.84181348 89.53565501 300.79853895 102.67643738 300.75801086 C115.44011763 300.71863646 128.20378849 300.67720559 140.967453 300.63301086 C141.75444349 300.63028659 142.54143399 300.62756232 143.35227267 300.62475549 C147.3004438 300.61107569 151.24861478 300.59735549 155.19678569 300.58361518 C187.94144835 300.4697105 220.68613056 300.36288788 253.43083191 300.26069641 C253.49929859 267.92841106 253.55237585 235.59614638 253.5840279 203.26380545 C253.58777993 199.44497927 253.5916629 195.62615324 253.59562683 191.80732727 C253.59641376 191.0470813 253.59720069 190.28683532 253.59801147 189.50355159 C253.61105842 177.2005762 253.63470833 164.89764295 253.6622903 152.59469254 C253.6903643 139.96676313 253.70701239 127.33885576 253.71309739 114.71089643 C253.7172097 106.92141476 253.73018893 99.1320522 253.75458131 91.34260719 C253.77234307 85.3653918 253.77419249 79.38827845 253.77015495 73.41103363 C253.77097981 70.96210688 253.77694094 68.51317559 253.78844833 66.06427574 C253.80340355 62.71727656 253.79977405 59.37078444 253.79159546 56.02377319 C253.80033398 55.05779695 253.80907251 54.09182071 253.81807584 53.09657246 C253.77186611 46.08610004 253.09848008 39.1506486 248.18083191 33.82319641 C241.78363704 30.1884266 235.72427797 29.97006697 228.5382843 30 C227.06875913 29.99426168 227.06875913 29.99426168 225.56954658 29.98840743 C222.29555153 29.97811071 219.02173295 29.9820633 215.74772644 29.98603821 C213.39679299 29.9816899 211.04586096 29.97650635 208.69493103 29.97055054 C202.31476346 29.95716207 195.93465514 29.95658172 189.55447626 29.95911384 C183.55213597 29.96031905 177.54980397 29.9541046 171.54746698 29.94868038 C158.93238119 29.93781165 146.31732214 29.93996412 133.70223485 29.94606522 C122.17244302 29.95123338 110.64273571 29.93998046 99.11296059 29.92096701 C87.26224748 29.90157475 75.41157433 29.89333506 63.56084526 29.89709026 C56.91236117 29.89900025 50.26393997 29.89626863 43.61546707 29.88237572 C37.36261875 29.8697984 31.10993954 29.87174077 24.85709381 29.88478661 C22.56458606 29.88715214 20.27206641 29.88441857 17.9795723 29.87616348 C14.84530139 29.86569262 11.71159754 29.87379986 8.5773468 29.88647461 C7.67450962 29.87910032 6.77167244 29.87172604 5.84147656 29.86412829 C-1.00954183 29.92223934 -7.81481195 30.71821382 -13.00666809 35.51069641 Z M-13.06916809 335.82319641 C-16.03819094 340.64785854 -16.18983107 344.64886865 -15.56916809 350.26069641 C-13.37572999 354.72881107 -11.08211672 357.16932997 -6.56916809 359.26069641 C-1.74109277 360.58793025 3.11653455 360.40585096 8.08287048 360.40113831 C9.54983238 360.40559499 9.54983238 360.40559499 11.04642987 360.41014171 C14.32659077 360.41881989 17.60671513 360.42033621 20.8868866 360.42182922 C23.23752419 360.426458 25.58816103 360.43148274 27.938797 360.43687439 C34.32733094 360.44999421 40.71585437 360.45644248 47.10439968 360.46088505 C51.09575225 360.4638163 55.08710194 360.4679212 59.07845306 360.47238922 C70.13614118 360.48457916 81.19382737 360.49487915 92.25152206 360.49826431 C93.31245262 360.49859366 93.31245262 360.49859366 94.39481612 360.49892966 C95.45823794 360.49925708 95.45823794 360.49925708 96.54314303 360.49959111 C97.97966433 360.50003457 99.41618562 360.50048114 100.85270691 360.50093079 C101.56526615 360.50115222 102.2778254 360.50137365 103.01197734 360.50160179 C114.55482482 360.50554879 126.09760913 360.52300105 137.64043221 360.54629031 C149.50011662 360.57002514 161.35976935 360.58246713 173.21947789 360.58363223 C179.8747051 360.58454777 186.52985956 360.59058975 193.18506622 360.60845184 C199.44608597 360.62492917 205.70694955 360.62708955 211.96798325 360.61831284 C214.26371809 360.6175423 216.55946132 360.62188731 218.85517502 360.63177109 C221.99392184 360.64449006 225.13211551 360.63861369 228.27085876 360.62818909 C229.17506018 360.63624549 230.0792616 360.6443019 231.01086307 360.65260243 C237.86656754 360.59950497 244.6725527 359.8068003 249.86833191 355.01069641 C253.12544308 349.27818074 253.6710185 343.83123894 253.55583191 337.32319641 C253.54229675 336.29742493 253.54229675 336.29742493 253.52848816 335.25093079 C253.50522148 333.58736354 253.46936358 331.9239801 253.43083191 330.26069641 C221.09854656 330.19222973 188.76628187 330.13915247 156.43394095 330.10750042 C152.61511477 330.10374839 148.79628873 330.09986542 144.97746277 330.09590149 C144.2172168 330.09511456 143.45697082 330.09432763 142.67368709 330.09351685 C130.3707117 330.0804699 118.06777845 330.05681999 105.76482803 330.02923802 C93.13689863 330.00116402 80.50899126 329.98451593 67.88103193 329.97843093 C60.09155025 329.97431862 52.30218769 329.96133939 44.51274269 329.93694701 C38.5355273 329.91918525 32.55841394 329.91733583 26.58116913 329.92137337 C24.13224238 329.92054851 21.68331109 329.91458738 19.23441124 329.90307999 C15.88741206 329.88812477 12.54091994 329.89175427 9.19390869 329.89993286 C8.22793245 329.89119434 7.26195621 329.88245581 6.26670796 329.87345248 C-0.86343944 329.92045105 -7.89762975 330.52236961 -13.06916809 335.82319641 Z " fill="#865A7A" transform="translate(137.5691680908203,60.73930358886719)"/>
<path d="M0 0 C16.41173506 8.32971461 29.01878924 23.58987155 35.8125 40.5 C39.35242934 51.46319078 40.39066238 61.60925181 40.31079102 73.04467773 C40.3146268 74.62847908 40.32025648 76.21227692 40.32751465 77.79606628 C40.33934683 81.17025758 40.33906948 84.54413703 40.32892036 87.91833305 C40.31319785 93.2611829 40.32714583 98.60371995 40.34495544 103.94654846 C40.3755983 114.31507643 40.37728214 124.68350572 40.37530518 135.05207062 C40.37390667 148.27495383 40.38433508 161.49776212 40.4238829 174.72059017 C40.43875832 180.02527954 40.43859157 185.32968586 40.42640507 190.63437927 C40.42167931 193.93552488 40.42923568 197.23656302 40.43994904 200.53769112 C40.44234508 202.0610169 40.43965571 203.58436104 40.43134117 205.10766602 C40.25091935 216.65694111 40.25091935 216.65694111 43.8125 227.5 C47.52952821 231.21702821 51.31415348 231.87305354 56.3125 232.875 C62.38428526 234.13648963 65.10035409 235.55047212 68.8125 240.5 C70.54062003 245.68436008 70.75730491 251.32694871 68.5625 256.375 C67.985 257.07625 67.4075 257.7775 66.8125 258.5 C65.99845703 259.49580078 65.99845703 259.49580078 65.16796875 260.51171875 C61.67956365 263.45632604 57.74556408 263.96431956 53.38867188 264.83398438 C48.48420951 265.95064732 45.87245879 267.50705921 42.8125 271.5 C41.17776998 276.24181734 40.56238062 280.38376275 40.5609436 285.38426208 C40.55797346 286.04048949 40.55500333 286.69671689 40.55194318 287.37282997 C40.54435824 289.55259956 40.55077453 291.73209526 40.55712891 293.91186523 C40.55437622 295.48297812 40.55069464 297.05408962 40.54615784 298.62519836 C40.53806502 302.00108662 40.53587265 305.37690871 40.53810501 308.75280571 C40.54094933 314.10520151 40.52654199 319.45746649 40.50912476 324.80982971 C40.46221219 340.0277407 40.43818119 355.24564293 40.43164062 370.46362305 C40.42787322 378.87446514 40.40970712 387.28515908 40.37654626 395.69593769 C40.35647858 401.00121232 40.35389008 406.30610098 40.36482644 411.61139762 C40.36745994 414.93478913 40.35330174 418.25796259 40.33474541 421.58129692 C40.32948617 423.10489094 40.33081058 424.62852674 40.33978081 426.15210342 C40.41165596 439.44897197 38.55250835 452.73386948 32.3125 464.6875 C31.97847168 465.33912109 31.64444336 465.99074219 31.30029297 466.66210938 C22.29551784 483.24284278 5.69635226 496.06036159 -12.078125 501.82421875 C-21.20147942 504.50320103 -34.18270749 507.48990362 -43.00390625 503.09765625 C-46.47386726 500.55881179 -48.81021139 498.63186584 -50.1875 494.5 C-50.68677255 488.83517684 -50.95664072 484.07681373 -47.1875 479.5 C-46.630625 478.778125 -46.07375 478.05625 -45.5 477.3125 C-41.60753346 474.26164784 -37.12521578 473.78825524 -32.3515625 473.078125 C-22.42182395 471.59759843 -14.59006527 469.13654994 -6.78125 462.671875 C-5.1875 461.5 -5.1875 461.5 -3.1875 461.5 C-2.91808594 460.93667969 -2.64867187 460.37335938 -2.37109375 459.79296875 C-1.12098547 457.37114182 0.29277945 455.11513094 1.75 452.8125 C9.13303829 440.53144607 8.95999131 427.91885726 8.9543457 413.96533203 C8.95738234 412.40551659 8.96090518 410.84570202 8.96487427 409.28588867 C8.97272411 405.94169137 8.97789328 402.59750455 8.98116493 399.25329971 C8.98710946 393.95674682 9.00368134 388.6602599 9.02250671 383.36373901 C9.02884294 381.54540447 9.03516858 379.72706989 9.04148388 377.90873528 C9.04464969 376.99852175 9.0478155 376.08830822 9.05107725 375.15051246 C9.09304721 362.83196117 9.12613113 350.51344232 9.13842773 338.19482422 C9.14682481 329.86787114 9.16937111 321.54108354 9.2077834 313.21421325 C9.22747837 308.81583911 9.23997028 304.41771195 9.23494911 300.01929092 C9.2302812 295.88059815 9.24422399 291.74237351 9.27196121 287.60377502 C9.27883545 286.09259961 9.2790405 284.58137539 9.27176094 283.07020187 C9.22432566 272.10900221 10.48408261 262.43257865 17.0625 253.3125 C17.58328125 252.57644531 18.1040625 251.84039062 18.640625 251.08203125 C19.02734375 250.55996094 19.4140625 250.03789062 19.8125 249.5 C18.59612177 247.05501863 17.36300044 244.61968677 16.12109375 242.1875 C15.49730251 240.95838069 14.87360693 239.72921283 14.25 238.5 C13.93353516 237.88382813 13.61707031 237.26765625 13.29101562 236.6328125 C10.49885242 231.10776768 9.68826586 227.20539677 9.66773987 221.0255127 C9.6624496 220.05303376 9.6624496 220.05303376 9.65705246 219.06090879 C9.64638517 216.89020796 9.64268782 214.71955106 9.63891602 212.54882812 C9.63260886 210.99137182 9.62584287 209.43391732 9.61865234 207.87646484 C9.60398845 204.5218188 9.59226087 201.16717969 9.58270454 197.81251526 C9.56722976 192.49928547 9.54327767 187.18611485 9.51780701 181.8729248 C9.4466733 166.76362863 9.38696282 151.65429804 9.33569336 136.54492188 C9.30730361 128.20045913 9.27187213 119.85605479 9.22903961 111.51165342 C9.20239869 106.23967337 9.18441247 100.96775934 9.17300236 95.69572544 C9.16381329 92.39989135 9.14642169 89.10413669 9.12682343 85.80834961 C9.11941068 84.29114545 9.1152707 82.77392081 9.11482811 81.25669861 C9.10670747 65.84162143 8.15202526 51.37546615 -2.015625 39.09375 C-3.1875 37.5 -3.1875 37.5 -3.1875 35.5 C-3.75082031 35.23058594 -4.31414062 34.96117187 -4.89453125 34.68359375 C-7.31635818 33.43348547 -9.57236906 32.01972055 -11.875 30.5625 C-20.05190474 25.67063996 -27.49926682 24.13341154 -36.953125 23.125 C-42.22129369 22.10699639 -45.69191604 19.4949531 -49.1875 15.5 C-50.91562003 10.31563992 -51.13230491 4.67305129 -48.9375 -0.375 C-37.44093795 -14.33511105 -14.24640536 -6.77764866 0 0 Z " fill="#865A7A" transform="translate(442.1875,7.5)"/>
<path d="M0 0 C3.26502559 2.90224497 4.80954273 4.83904252 5.203125 9.3046875 C5.36023789 17.91971113 5.36023789 17.91971113 2 22 C1.443125 22.721875 0.88625 23.44375 0.3125 24.1875 C-3.57996654 27.23835216 -8.06228422 27.71174476 -12.8359375 28.421875 C-22.76567605 29.90240157 -30.59743473 32.36345006 -38.40625 38.828125 C-40 40 -40 40 -42 40 C-42.26941406 40.56332031 -42.53882812 41.12664063 -42.81640625 41.70703125 C-44.06651453 44.12885818 -45.48027945 46.38486906 -46.9375 48.6875 C-54.32053829 60.96855393 -54.14749131 73.58114274 -54.1418457 87.53466797 C-54.14488234 89.09448341 -54.14840518 90.65429798 -54.15237427 92.21411133 C-54.16022411 95.55830863 -54.16539328 98.90249545 -54.16866493 102.24670029 C-54.17460946 107.54325318 -54.19118134 112.8397401 -54.21000671 118.13626099 C-54.21634294 119.95459553 -54.22266858 121.77293011 -54.22898388 123.59126472 C-54.23214969 124.50147825 -54.2353155 125.41169178 -54.23857725 126.34948754 C-54.28054721 138.66803883 -54.31363113 150.98655768 -54.32592773 163.30517578 C-54.33432481 171.63212886 -54.35687111 179.95891646 -54.3952834 188.28578675 C-54.41497837 192.68416089 -54.42747028 197.08228805 -54.42244911 201.48070908 C-54.4177812 205.61940185 -54.43172399 209.75762649 -54.45946121 213.89622498 C-54.46633545 215.40740039 -54.4665405 216.91862461 -54.45926094 218.42979813 C-54.41182566 229.39099779 -55.67158261 239.06742135 -62.25 248.1875 C-62.77078125 248.92355469 -63.2915625 249.65960938 -63.828125 250.41796875 C-64.21484375 250.94003906 -64.6015625 251.46210938 -65 252 C-63.78362177 254.44498137 -62.55050044 256.88031323 -61.30859375 259.3125 C-60.68480251 260.54161931 -60.06110693 261.77078717 -59.4375 263 C-59.12103516 263.61617188 -58.80457031 264.23234375 -58.47851562 264.8671875 C-55.68635242 270.39223232 -54.87576586 274.29460323 -54.85523987 280.4744873 C-54.8499496 281.44696624 -54.8499496 281.44696624 -54.84455246 282.43909121 C-54.83388517 284.60979204 -54.83018782 286.78044894 -54.82641602 288.95117188 C-54.82010886 290.50862818 -54.81334287 292.06608268 -54.80615234 293.62353516 C-54.79148845 296.9781812 -54.77976087 300.33282031 -54.77020454 303.68748474 C-54.75472976 309.00071453 -54.73077767 314.31388515 -54.70530701 319.6270752 C-54.6341733 334.73637137 -54.57446282 349.84570196 -54.52319336 364.95507812 C-54.49480361 373.29954087 -54.45937213 381.64394521 -54.41653961 389.98834658 C-54.38989869 395.26032663 -54.37191247 400.53224066 -54.36050236 405.80427456 C-54.35131329 409.10010865 -54.33392169 412.39586331 -54.31432343 415.69165039 C-54.30691068 417.20885455 -54.3027707 418.72607919 -54.30232811 420.24330139 C-54.29420747 435.65837857 -53.33952526 450.12453385 -43.171875 462.40625 C-42 464 -42 464 -42 466 C-41.15501953 466.40412109 -41.15501953 466.40412109 -40.29296875 466.81640625 C-37.87114182 468.06651453 -35.61513094 469.48027945 -33.3125 470.9375 C-25.13559526 475.82936004 -17.68823318 477.36658846 -8.234375 478.375 C-2.96620631 479.39300361 0.50441604 482.0050469 4 486 C5.72812003 491.18436008 5.94480491 496.82694871 3.75 501.875 C-1.02702703 507.67567568 -1.02702703 507.67567568 -5 509 C-23.37837931 510.35559992 -42.11718008 506.04585171 -56.61328125 494.1640625 C-72.49066985 480.3155389 -83.85464269 462.43099093 -85.36367989 440.99054146 C-85.54919513 436.81188992 -85.52749807 432.63698519 -85.49829102 428.45532227 C-85.5021268 426.87152092 -85.50775648 425.28772308 -85.51501465 423.70393372 C-85.52684683 420.32974242 -85.52656948 416.95586297 -85.51642036 413.58166695 C-85.50069785 408.2388171 -85.51464583 402.89628005 -85.53245544 397.55345154 C-85.5630983 387.18492357 -85.56478214 376.81649428 -85.56280518 366.44792938 C-85.56140667 353.22504617 -85.57183508 340.00223788 -85.6113829 326.77940983 C-85.62625832 321.47472046 -85.62609157 316.17031414 -85.61390507 310.86562073 C-85.60917931 307.56447512 -85.61673568 304.26343698 -85.62744904 300.96230888 C-85.62984508 299.4389831 -85.62715571 297.91563896 -85.61884117 296.39233398 C-85.43841935 284.84305889 -85.43841935 284.84305889 -89 274 C-92.71702821 270.28297179 -96.50165348 269.62694646 -101.5 268.625 C-107.57178526 267.36351037 -110.28785409 265.94952788 -114 261 C-115.72812003 255.81563992 -115.94480491 250.17305129 -113.75 245.125 C-113.1725 244.42375 -112.595 243.7225 -112 243 C-111.45730469 242.33613281 -110.91460937 241.67226562 -110.35546875 240.98828125 C-106.86706365 238.04367396 -102.93306408 237.53568044 -98.57617188 236.66601562 C-93.67170951 235.54935268 -91.05995879 233.99294079 -88 230 C-86.36526998 225.25818266 -85.74988062 221.11623725 -85.7484436 216.11573792 C-85.74547346 215.45951051 -85.74250333 214.80328311 -85.73944318 214.12717003 C-85.73185824 211.94740044 -85.73827453 209.76790474 -85.74462891 207.58813477 C-85.74187622 206.01702188 -85.73819464 204.44591038 -85.73365784 202.87480164 C-85.72556502 199.49891338 -85.72337265 196.12309129 -85.72560501 192.74719429 C-85.72844933 187.39479849 -85.71404199 182.04253351 -85.69662476 176.69017029 C-85.64971219 161.4722593 -85.62568119 146.25435707 -85.61914062 131.03637695 C-85.61537322 122.62553486 -85.59720712 114.21484092 -85.56404626 105.80406231 C-85.54397858 100.49878768 -85.54139008 95.19389902 -85.55232644 89.88860238 C-85.55495994 86.56521087 -85.54080174 83.24203741 -85.52224541 79.91870308 C-85.51698617 78.39510906 -85.51831058 76.87147326 -85.52728081 75.34789658 C-85.59915596 62.05102803 -83.74000835 48.76613052 -77.5 36.8125 C-77.16597168 36.16087891 -76.83194336 35.50925781 -76.48779297 34.83789062 C-67.48301784 18.25715722 -50.88385226 5.43963841 -33.109375 -0.32421875 C-23.14410246 -3.25042192 -8.90200637 -6.51327479 0 0 Z " fill="#865A7A" transform="translate(115,3)"/>
<path d="M0 0 C4.72403852 1.9512333 7.72471109 5.44942218 10 10 C10.68559694 17.93550192 9.36427041 25.1185792 7.40136719 32.77026367 C7.12493881 33.89043381 6.84851044 35.01060394 6.56370544 36.16471863 C5.65416487 39.83577614 4.72607951 43.50184353 3.796875 47.16796875 C3.15541093 49.73361605 2.51482003 52.29948181 1.87506104 54.86555481 C0.53560407 60.22964578 -0.81418859 65.59105255 -2.17041016 70.95092773 C-3.73341081 77.12849016 -5.2804865 83.30987241 -6.81898808 89.49357814 C-8.30625995 95.47000756 -9.80430304 101.44367749 -11.30721283 107.41619301 C-11.94288307 109.94602479 -12.57597246 112.47650654 -13.20639801 115.00765038 C-14.08963472 118.54681028 -14.98504407 122.08267106 -15.88378906 125.61791992 C-16.14057938 126.65656189 -16.39736969 127.69520386 -16.66194153 128.76531982 C-18.51550327 135.9797752 -20.64720728 142.24551096 -25.5625 148 C-30.40625041 150.81818205 -34.52210285 150.76221505 -40 150 C-44.7344316 148.08608084 -47.72684393 144.54631214 -50 140 C-50.68856445 132.05563148 -49.35862071 124.87167268 -47.38549805 117.21386719 C-47.10746338 116.09209076 -46.82942871 114.97031433 -46.54296875 113.81454468 C-45.62843825 110.13871854 -44.69549021 106.46785616 -43.76171875 102.796875 C-43.11775455 100.22885299 -42.47470065 97.66061849 -41.8327179 95.09210205 C-40.488809 89.72387534 -39.13503738 84.35821587 -37.7746582 78.99414062 C-36.20588676 72.80808091 -34.65025485 66.61883794 -33.10216302 60.42757297 C-31.60655283 54.4465575 -30.10403586 48.46730574 -28.59790993 42.48892975 C-27.9598711 39.95516831 -27.32317979 37.42106714 -26.68787193 34.88661957 C-25.7987543 31.34572976 -24.90187184 27.80689911 -24.00268555 24.26855469 C-23.74229996 23.22631744 -23.48191437 22.1840802 -23.21363831 21.11026001 C-21.03135787 12.58139541 -19.31456713 6.29138899 -12 1 C-8.31088477 -0.84455761 -4.03542855 -0.35062965 0 0 Z " fill="#86597B" transform="translate(276,151)"/>
<path d="M0 0 C1.00289063 -0.0721875 2.00578125 -0.144375 3.0390625 -0.21875 C6.58506324 0.54525953 7.51685348 1.23719605 10.12670898 3.59643555 C11.18142395 4.54956131 11.18142395 4.54956131 12.25744629 5.52194214 C15.46067968 8.5141595 18.58932845 11.57127788 21.68359375 14.67578125 C22.33578384 15.32701462 22.98797394 15.97824799 23.65992737 16.6492157 C25.02150136 18.01011535 26.38183824 19.3722538 27.7409668 20.7355957 C29.82812274 22.82816325 31.92063632 24.91526824 34.01367188 27.00195312 C35.34146705 28.33040819 36.66895247 29.65917293 37.99609375 30.98828125 C38.93502724 31.92417839 38.93502724 31.92417839 39.89292908 32.87898254 C44.15102292 37.16043048 45.57125172 39.12597151 45.875 45.125 C45.98328125 46.62933594 45.98328125 46.62933594 46.09375 48.1640625 C45.32974047 51.71006324 44.63780395 52.64185348 42.27856445 55.25170898 C41.64314728 55.95485229 41.0077301 56.65799561 40.35305786 57.38244629 C37.3608405 60.58567968 34.30372212 63.71432845 31.19921875 66.80859375 C30.54798538 67.46078384 29.89675201 68.11297394 29.2257843 68.78492737 C27.86488465 70.14650136 26.5027462 71.50683824 25.1394043 72.8659668 C23.04683675 74.95312274 20.95973176 77.04563632 18.87304688 79.13867188 C17.54459181 80.46646705 16.21582707 81.79395247 14.88671875 83.12109375 C13.95082161 84.06002724 13.95082161 84.06002724 12.99601746 85.01792908 C7.68461993 90.30035442 4.91360462 91.01002071 -2.49609375 90.9921875 C-7.54351775 90.19821069 -10.44671335 87.34877452 -13.625 83.5 C-15.7698908 79.2102184 -15.29088735 74.13764024 -14.625 69.5 C-12.93864953 66.17184416 -10.34865478 64.01125968 -7.625 61.5 C-6.35161693 60.23040881 -5.08391391 58.9551083 -3.8203125 57.67578125 C-0.11354645 53.92492378 3.62270167 50.20525891 7.375 46.5 C5.86787699 42.94961928 3.80333908 40.70886613 1.05859375 38.0234375 C-0.21081055 36.77046875 -0.21081055 36.77046875 -1.50585938 35.4921875 C-2.83327148 34.19667969 -2.83327148 34.19667969 -4.1875 32.875 C-5.94097382 31.15585815 -7.69238575 29.43460987 -9.44140625 27.7109375 C-10.21943604 26.95087402 -10.99746582 26.19081055 -11.79907227 25.40771484 C-15.44279461 21.60078258 -15.12941466 17.70929322 -15.1171875 12.62890625 C-14.32321069 7.58148225 -11.47377452 4.67828665 -7.625 1.5 C-5.01525816 0.19512908 -2.91551916 0.14762122 0 0 Z " fill="#86597A" transform="translate(315.625,180.5)"/>
<path d="M0 0 C3.80333334 2.2386338 7.00833378 5.01666757 9 9 C9.63815992 13.71368126 10.16837733 18.69410814 7.96484375 23.04296875 C6.10495304 25.19777819 4.09452841 27.06880638 2 29 C0.72661693 30.26959119 -0.54108609 31.5448917 -1.8046875 32.82421875 C-5.51145355 36.57507622 -9.24770167 40.29474109 -13 44 C-11.49287699 47.55038072 -9.42833908 49.79113387 -6.68359375 52.4765625 C-5.83732422 53.311875 -4.99105469 54.1471875 -4.11914062 55.0078125 C-2.79172852 56.30332031 -2.79172852 56.30332031 -1.4375 57.625 C0.31597382 59.34414185 2.06738575 61.06539013 3.81640625 62.7890625 C4.98345093 63.92915771 4.98345093 63.92915771 6.17407227 65.09228516 C9.81779461 68.89921742 9.50441466 72.79070678 9.4921875 77.87109375 C8.69821069 82.91851775 5.84877452 85.82171335 2 89 C-0.60974184 90.30487092 -2.70948084 90.35237878 -5.625 90.5 C-7.12933594 90.60828125 -7.12933594 90.60828125 -8.6640625 90.71875 C-12.21006324 89.95474047 -13.14185348 89.26280395 -15.75170898 86.90356445 C-16.45485229 86.26814728 -17.15799561 85.6327301 -17.88244629 84.97805786 C-21.08567968 81.9858405 -24.21432845 78.92872212 -27.30859375 75.82421875 C-27.96078384 75.17298538 -28.61297394 74.52175201 -29.28492737 73.8507843 C-30.64650136 72.48988465 -32.00683824 71.1277462 -33.3659668 69.7644043 C-35.45312274 67.67183675 -37.54563632 65.58473176 -39.63867188 63.49804688 C-40.96646705 62.16959181 -42.29395247 60.84082707 -43.62109375 59.51171875 C-44.24704941 58.88778732 -44.87300507 58.2638559 -45.51792908 57.62101746 C-49.77602292 53.33956952 -51.19625172 51.37402849 -51.5 45.375 C-51.5721875 44.37210938 -51.644375 43.36921875 -51.71875 42.3359375 C-50.95474047 38.78993676 -50.26280395 37.85814652 -47.90356445 35.24829102 C-47.26814728 34.54514771 -46.6327301 33.84200439 -45.97805786 33.11755371 C-42.9858405 29.91432032 -39.92872212 26.78567155 -36.82421875 23.69140625 C-36.17298538 23.03921616 -35.52175201 22.38702606 -34.8507843 21.71507263 C-33.48988465 20.35349864 -32.1277462 18.99316176 -30.7644043 17.6340332 C-28.67183675 15.54687726 -26.58473176 13.45436368 -24.49804688 11.36132812 C-23.16959181 10.03353295 -21.84082707 8.70604753 -20.51171875 7.37890625 C-19.88778732 6.75295059 -19.2638559 6.12699493 -18.62101746 5.48207092 C-12.72398773 -0.38279216 -8.28984631 -1.30402077 0 0 Z " fill="#86597A" transform="translate(202,181)"/>
</svg>
