<svg xmlns="http://www.w3.org/2000/svg" viewBox="0 0 393.12 58.27"><defs><style>.cls-1{fill:#875a7b;}.cls-2{fill:#4d4d4d;}</style></defs><title>logo</title><g id="Layer_2" data-name="Layer 2"><g id="Layer_1-2" data-name="Layer 1"><path class="cls-1" d="M23.41,50.74a7.93,7.93,0,0,1-.56,1.2q-3.24,6.33-10.12,6.33A11.83,11.83,0,0,1,5.7,56Q0,51.86,0,43.15a18.37,18.37,0,0,1,3.3-11,13.13,13.13,0,0,1,11.11-5.63,12.51,12.51,0,0,1,8.79,3.31V13.69H16.73V11.86H31V55.73h3.3a5.56,5.56,0,0,1,.92.07c.56.15.84.73.84,1.76H24.26ZM8.93,47.58q1.41,7.59,6.61,7.59A5.71,5.71,0,0,0,19,54.05Q23.35,50.81,23.34,41a25.59,25.59,0,0,0-.63-6q-1.62-6.39-6.47-6.4a6,6,0,0,0-3.09.85Q8.5,32.19,8.51,42.3A30.55,30.55,0,0,0,8.93,47.58Z"/><path class="cls-1" d="M65.53,29.51q5.91,4.36,5.91,12.58a16,16,0,0,1-3.66,10.55,15.3,15.3,0,0,1-12.44,5.63,15.4,15.4,0,0,1-9.92-3.38q-5.76-4.64-5.76-12.8A15.31,15.31,0,0,1,43.17,32q4.65-5.49,12.66-5.49A15.81,15.81,0,0,1,65.53,29.51ZM48.87,50.39q1.4,6,6.68,6a7,7,0,0,0,3.16-.71Q63,53.42,63,42.09a35.06,35.06,0,0,0-.7-7.73q-1.41-6-6.75-6.05a6.92,6.92,0,0,0-3.59.92q-3.8,2.46-3.8,13.14A36.56,36.56,0,0,0,48.87,50.39Z"/><path class="cls-1" d="M90.42,14.81c-.7-.09-1-.68-1-1.76h16.87v1.83a9.69,9.69,0,0,0-2.25.21c-1.54.38-2.32,1.57-2.32,3.59V41.39h4.57v1.76H93.94V14.88H91.05A2.48,2.48,0,0,1,90.42,14.81ZM93.8,50.46A4.46,4.46,0,0,1,98,48a5.09,5.09,0,0,1,2.18.49,4.36,4.36,0,0,1,2.6,4.22,4.94,4.94,0,0,1-.57,2.25A4.43,4.43,0,0,1,98,57.56a4.83,4.83,0,0,1-4.22-7.1Z"/><path class="cls-2" d="M124.8,55.8c.61.15.92.73.92,1.76H109.55V55.73a9.88,9.88,0,0,0,2.18-.21c1.54-.32,2.32-1.52,2.32-3.58V29.23h-4.5V27.47h11.81l.35,5.83a13.26,13.26,0,0,1,1.83-2.81,11,11,0,0,1,8.58-4,9.92,9.92,0,0,1,3.93.78q5.77,2.39,5.77,10.69V55.73h2.74a6.09,6.09,0,0,1,.85.07c.6.15.91.73.91,1.76h-16.1V55.73a6.89,6.89,0,0,0,2.25-.28q1.62-.56,1.62-3.51v-15a10.23,10.23,0,0,0-.36-2.81q-1-4.16-5-4.15a5.79,5.79,0,0,0-2.67.7c-2.49,1.41-3.89,4-4.22,7.74l-.07,17.36H124A6,6,0,0,1,124.8,55.8Z"/><path class="cls-2" d="M153.42,32q4.44-5.49,12.31-5.49a16.68,16.68,0,0,1,8.57,2.11q3.87,2.32,3.87,5.49a4.47,4.47,0,0,1-.14,1.05q-.78,2.46-3.94,2.46a4.73,4.73,0,0,1-2.32-.63c-.79-.56-1.36-1.87-1.68-3.94-.1-.84-.19-1.47-.29-1.9q-.77-2.88-4.07-2.88a10.23,10.23,0,0,0-1.62.14q-5.7,1.34-5.7,14.21.08,13.5,8.37,13.64a10.71,10.71,0,0,0,2.81-.36A10.23,10.23,0,0,0,176.91,50l1.82.49a10.28,10.28,0,0,1-1.82,3.09q-3.87,4.65-11.18,4.65a17.56,17.56,0,0,1-8.58-2q-7.25-4-7.24-13.64A16.22,16.22,0,0,1,153.42,32Z"/><path class="cls-2" d="M198.77,55.8c.71.1,1.06.68,1.06,1.76H180.77V55.73a10.61,10.61,0,0,0,2.32-.21c1.41-.37,2.11-1.57,2.11-3.58V29.23h-4.43V27.47h11.61l.42,6.61a12.3,12.3,0,0,1,2.32-3.66,10.37,10.37,0,0,1,7.66-3.51,7,7,0,0,1,1.69.21,4,4,0,0,1,3.3,4.22,3.74,3.74,0,0,1-.35,1.61,3.65,3.65,0,0,1-3.58,2.46,4.23,4.23,0,0,1-1.34-.21A5,5,0,0,1,200,32.53q-.91-1.62-1.83-1.62a2.63,2.63,0,0,0-1.34.5q-3.3,2.31-3.79,9.07V55.73h5.13A3,3,0,0,1,198.77,55.8Z"/><path class="cls-2" d="M237.66,52.57q-3.58,5.7-11.61,5.7a17.25,17.25,0,0,1-8.5-2.11q-7.11-4.15-7.1-13.79a16.59,16.59,0,0,1,3-10q4.29-5.84,12.37-5.84a18.22,18.22,0,0,1,7.95,1.69q5.63,2.82,5.62,8.37a4.92,4.92,0,0,1-.7,2.67c-1.41,2.16-5.62,3.16-12.66,3l-7.1-.14v.14q.36,14,8.58,14a9.42,9.42,0,0,0,3-.5A10.31,10.31,0,0,0,237,49.9l1.69.56A14.79,14.79,0,0,1,237.66,52.57Zm-13.43-24q-5,1.56-5.28,11.53l5.42.22a16.51,16.51,0,0,0,4.5-.36q2.38-.84,2.39-4.14a12.59,12.59,0,0,0-.21-2.32c-.57-3.43-2.3-5.14-5.21-5.14A6.66,6.66,0,0,0,224.23,28.52Z"/><path class="cls-2" d="M267.05,50.74a8,8,0,0,1-.57,1.2,10.66,10.66,0,0,1-10.12,6.33,11.85,11.85,0,0,1-7-2.25q-5.7-4.16-5.7-12.87a18.3,18.3,0,0,1,3.31-11,13.11,13.11,0,0,1,11.11-5.63,12.53,12.53,0,0,1,8.79,3.31V13.69h-6.47V11.86h14.27V55.73h3.3a5.56,5.56,0,0,1,.92.07c.56.15.84.73.84,1.76H267.89Zm-14.49-3.16q1.41,7.59,6.61,7.59a5.72,5.72,0,0,0,3.45-1.12Q267,50.81,267,41a25,25,0,0,0-.64-6q-1.6-6.39-6.47-6.4a6.1,6.1,0,0,0-3.09.85q-4.63,2.75-4.64,12.86A30.55,30.55,0,0,0,252.56,47.58Z"/><path class="cls-2" d="M298.69,55.8c.7.1,1.05.68,1.05,1.76H282.87V55.73a9.75,9.75,0,0,0,2.25-.21c1.54-.37,2.32-1.57,2.32-3.58V29.23h-4.57V27.47h12.3V55.73h2.88A3.06,3.06,0,0,1,298.69,55.8Zm-3.38-35.64a4.46,4.46,0,0,1-4.22,2.46,5.11,5.11,0,0,1-2.18-.5,4.35,4.35,0,0,1-2.6-4.21,5.05,5.05,0,0,1,.56-2.25,4.45,4.45,0,0,1,4.22-2.61,4.52,4.52,0,0,1,2.18.57,4.57,4.57,0,0,1,2.6,4.29A4.69,4.69,0,0,1,295.31,20.16Z"/><path class="cls-2" d="M313.52,52.71l-.63,4.85H302.77V55.73a10.24,10.24,0,0,0,2.25-.21c1.4-.37,2.1-1.59,2.1-3.65V13.69h-4.35V11.86h12.16V33.94c.05-.1.09-.19.14-.28q3.45-7.18,10.9-7.18a10.94,10.94,0,0,1,7,2.39q5.2,4.15,5.2,12.87a17.43,17.43,0,0,1-3.79,11.53,13.35,13.35,0,0,1-10.76,5A11.32,11.32,0,0,1,313.52,52.71Zm5.42-21.44q-4.08,3.51-4.08,12.58a23.19,23.19,0,0,0,.84,6.61q1.76,6,6.61,6a5.93,5.93,0,0,0,2-.35q5.42-1.91,5.41-13.57V41q-.42-11.25-6.75-11.25A6.07,6.07,0,0,0,318.94,31.27Z"/><path class="cls-2" d="M359.44,55.8c.61.15.91.73.91,1.76H341.86V55.73a13.83,13.83,0,0,0,3.3-.28c1.41-.42,2.11-1.64,2.11-3.65V13.69h-5.41V11.86H355V55.73h3.58A6.09,6.09,0,0,1,359.44,55.8Z"/><path class="cls-2" d="M391.36,52.57q-3.58,5.7-11.6,5.7a17.29,17.29,0,0,1-8.51-2.11q-7.11-4.15-7.1-13.79a16.65,16.65,0,0,1,3-10q4.29-5.84,12.38-5.84a18.18,18.18,0,0,1,7.94,1.69q5.63,2.82,5.63,8.37a4.93,4.93,0,0,1-.71,2.67q-2.1,3.24-12.65,3l-7.1-.14v.14q.34,14,8.57,14a9.53,9.53,0,0,0,3-.5,10.34,10.34,0,0,0,6.47-5.83l1.68.56A14.79,14.79,0,0,1,391.36,52.57Zm-13.43-24q-5,1.56-5.27,11.53l5.41.22a16.51,16.51,0,0,0,4.5-.36q2.39-.84,2.39-4.14a12.59,12.59,0,0,0-.21-2.32c-.56-3.43-2.3-5.14-5.2-5.14A6.67,6.67,0,0,0,377.93,28.52Z"/><path class="cls-1" d="M22.8,2.46A4.46,4.46,0,0,1,27,0,5.09,5.09,0,0,1,29.2.49a4.36,4.36,0,0,1,2.6,4.22A4.94,4.94,0,0,1,31.23,7,4.43,4.43,0,0,1,27,9.56,4.62,4.62,0,0,1,24.84,9a4.59,4.59,0,0,1-2.61-4.29A4.64,4.64,0,0,1,22.8,2.46Z"/></g></g></svg>