<?xml version="1.0" encoding="UTF-8"?>
<svg version="1.1" xmlns="http://www.w3.org/2000/svg" width="512" height="512">
<path d="M0 0 C1.06324976 -0.00262956 1.06324976 -0.00262956 2.14797932 -0.00531223 C4.51721997 -0.00995485 6.88639878 -0.00751123 9.25564194 -0.00507832 C10.97388596 -0.00694716 12.69212957 -0.00924816 14.4103725 -0.01194364 C19.12778143 -0.01805892 23.84517264 -0.01792836 28.56258464 -0.01674926 C33.65202021 -0.01654519 38.7414501 -0.02206467 43.83088303 -0.02680683 C53.80057048 -0.0351125 63.77025202 -0.03786164 73.73994264 -0.03841921 C81.84418325 -0.03889442 89.94842191 -0.0409494 98.0526619 -0.04411983 C121.0313329 -0.05292624 144.00999923 -0.05753924 166.98867193 -0.05678936 C168.84676599 -0.05672943 168.84676599 -0.05672943 170.74239731 -0.05666828 C171.98263974 -0.0566274 173.22288218 -0.05658652 174.50070772 -0.0565444 C194.60050354 -0.05613795 214.70028063 -0.06570724 234.80007103 -0.07980665 C255.44002359 -0.09417068 276.07996701 -0.10107681 296.71992469 -0.10021287 C308.307016 -0.09988091 319.89408766 -0.10262774 331.48117447 -0.11339092 C341.34673445 -0.12249628 351.21226589 -0.12467087 361.07782826 -0.1178815 C366.11002177 -0.11461647 371.14216053 -0.11455905 376.17434883 -0.12323475 C380.78469894 -0.13110133 385.39495087 -0.12966665 390.00529858 -0.12095062 C391.66947368 -0.11941599 393.33365611 -0.1212304 394.99782255 -0.12681069 C408.98078125 -0.17057759 422.25674749 -0.19911179 432.90694809 9.94113445 C439.47564496 16.87117418 441.7781549 22.84008525 441.79116917 32.34239006 C441.7935214 33.0736865 441.79587363 33.80498294 441.79829714 34.55843988 C441.80498266 37.02213509 441.80452905 39.4857775 441.80411911 41.94948101 C441.80741801 43.72843357 441.81114363 45.50738539 441.81526059 47.28633624 C441.82528565 52.18540434 441.82899819 57.08446018 441.8316499 61.98353708 C441.8355514 67.26317547 441.84512979 72.54280414 441.85386276 77.82243633 C441.87363064 90.57731711 441.88369341 103.33219868 441.89259055 116.08709094 C441.89697258 122.09150238 441.90233958 128.09591294 441.90757942 134.10032368 C441.92459138 154.05630307 441.9390863 174.01228191 441.94632816 193.96826744 C441.9482381 199.1476183 441.95015843 204.32696916 441.95211411 209.50632 C441.95259785 210.79364278 441.95308159 212.08096556 441.95357998 213.40729813 C441.96188311 234.26847205 441.98722496 255.12958868 442.01969478 275.99073758 C442.05274843 297.40125378 442.07077536 318.81174085 442.0739724 340.22228271 C442.07613898 352.24645338 442.08490929 364.27054049 442.11043358 376.29468632 C442.13211734 386.53332693 442.1402024 396.77186368 442.1304668 407.01052465 C442.1259155 412.23491106 442.12785669 417.45908307 442.14722824 422.68344021 C442.16481308 427.46721739 442.16390019 432.25062302 442.14833095 437.0344039 C442.14594778 438.76391262 442.15031511 440.49344676 442.1621596 442.22291657 C442.24038027 454.39966128 441.08751992 463.14568134 432.51632309 472.33957195 C425.80605949 478.79608609 419.64793103 481.37683433 410.19430351 481.38311005 C409.46039979 481.38631652 408.72649606 481.389523 407.97035283 481.39282665 C405.50977665 481.40113167 403.04944356 481.39520063 400.58886337 481.38933086 C398.80747119 481.39235132 397.02608031 481.39624027 395.24469173 481.40092343 C390.34819055 481.41122585 385.45176241 481.4090159 380.55525517 481.40474284 C375.27498661 481.40227968 369.99473582 481.41128467 364.71447372 481.41878033 C354.36932446 481.43154081 344.02420114 481.43331933 333.67904533 481.43098006 C325.27154923 481.42919824 316.86406102 481.43094362 308.45656586 481.43520451 C307.26073252 481.43579969 306.06489919 481.43639488 304.83282848 481.43700811 C302.40361954 481.43821984 299.97441059 481.43943397 297.54520164 481.44065049 C274.7551652 481.45153124 251.96514355 481.44936101 229.17510627 481.44326564 C208.31985925 481.43809607 187.46465893 481.44935205 166.60942115 481.46836386 C145.20223323 481.48772943 123.79506741 481.4960005 102.38787067 481.49224061 C90.3665767 481.49032661 78.34532248 481.49283545 66.32403564 481.50695515 C56.09017935 481.5188536 45.85638727 481.5202911 35.62253012 481.50816498 C30.40031843 481.5022655 25.1782243 481.5012064 19.95602036 481.51316738 C15.17550646 481.52398954 10.39520881 481.52096658 5.61470519 481.5069057 C3.88527866 481.50424864 2.15583538 481.50665683 0.42642523 481.51464156 C-1.92555211 481.52474698 -4.27677768 481.51632666 -6.62872505 481.50336456 C-8.58775995 481.50344709 -8.58775995 481.50344709 -10.5863713 481.50353128 C-20.6769683 480.49654315 -27.34310415 475.01566972 -33.79617691 467.41769695 C-39.16985693 459.838402 -39.46665422 450.6413141 -39.47168636 441.67815208 C-39.4734394 440.96985344 -39.47519244 440.26155479 -39.4769986 439.53179255 C-39.48163176 437.17039175 -39.47920007 434.80905324 -39.47676468 432.44764996 C-39.478634 430.73266767 -39.48093519 429.01768582 -39.48363 427.30270463 C-39.48973935 422.5989566 -39.48961543 417.89522637 -39.48843563 413.19147527 C-39.4882314 408.11500899 -39.49375242 403.0385484 -39.49849319 397.96208477 C-39.50679541 388.01994 -39.50954784 378.07780116 -39.51010557 368.13565322 C-39.51058091 360.05384309 -39.51263652 351.97203492 -39.5158062 343.89022541 C-39.52461136 320.97280008 -39.52922575 298.05537944 -39.52847572 275.13795241 C-39.52843577 273.90277543 -39.52839581 272.66759846 -39.52835464 271.39499187 C-39.52831376 270.15830556 -39.52827288 268.92161924 -39.52823076 267.64745758 C-39.52782426 247.60269078 -39.53739518 227.55794277 -39.55149301 207.51318141 C-39.56585701 186.92743779 -39.57276319 166.34170333 -39.57189924 145.75595456 C-39.57156729 134.20017727 -39.5743134 122.64441967 -39.58507729 111.08864689 C-39.59418255 101.25055947 -39.59635728 91.41250068 -39.58956786 81.57441088 C-39.5863029 76.55638722 -39.5862452 71.53841848 -39.59492111 66.52040005 C-39.60278789 61.92304271 -39.60135282 57.32578382 -39.59263698 52.72842888 C-39.5911024 51.06899427 -39.59291656 49.40955232 -39.59849706 47.75012638 C-39.64201696 33.88617213 -39.62528429 19.688765 -29.34305191 9.12863445 C-20.10553103 2.04594636 -11.60428411 0.00649724 0 0 Z " fill="#FEFEFE" transform="translate(54.34305191040039,14.871365547180176)"/>
<path d="M0 0 C1.0209375 0.53238281 2.041875 1.06476563 3.09375 1.61328125 C32.60158764 17.88141805 55.84982995 46.74049415 65.21484375 79.09375 C67.90786529 88.80579235 67.90786529 88.80579235 68.203125 92.6328125 C69.43381489 96.2886854 72.33299905 97.7470181 75.4375 99.75 C99.86779639 116.35226792 116.94587539 141.98159158 123 171 C127.68687439 200.21709827 121.98525084 231.60423966 104.86328125 256.05078125 C103.6278894 257.68907103 102.36301095 259.30606187 101.0546875 260.88671875 C99.72030338 262.99725308 99.72030338 262.99725308 100.58203125 265.484375 C104.00877154 271.563771 109.21760963 276.5222218 114.484375 281.03515625 C115.07629639 281.54941162 115.66821777 282.06366699 116.27807617 282.59350586 C117.44562279 283.59556085 118.63040356 284.57796044 119.83325195 285.53735352 C122.0587036 287.44862375 123.80058719 289.10231792 124.45019531 292.02661133 C124.54612595 294.96769613 124.29353354 297.40957186 122.9765625 300.05859375 C118.21078828 304.92078536 118.21078828 304.92078536 115.03383446 305.12863445 C114.22315828 305.1303103 113.41248211 305.13198614 112.57723999 305.13371277 C111.64681381 305.13797775 110.71638763 305.14224274 109.75776672 305.14663696 C108.22130745 305.14595718 108.22130745 305.14595718 106.65380859 305.14526367 C105.57706375 305.14862228 104.50031891 305.1519809 103.39094543 305.15544128 C99.81009787 305.16498313 96.22929701 305.16689685 92.6484375 305.16796875 C90.15613791 305.17118206 87.6638385 305.17454619 85.17153931 305.17805481 C79.93076272 305.18405622 74.68999795 305.18593675 69.44921875 305.18530273 C62.76962754 305.18464043 56.09016022 305.19878489 49.41058922 305.21607494 C44.25262987 305.22726456 39.09469586 305.22921972 33.93672562 305.22869301 C31.47704323 305.22986531 29.01736002 305.23424449 26.55768967 305.24202538 C-11.59513003 305.35129545 -42.20957867 297.56825251 -70 270 C-78.13675575 261.55550008 -78.13675575 261.55550008 -79.96930027 258.25339508 C-81.58160277 255.48487279 -82.81389618 253.38364749 -85.95384026 252.36802673 C-88.3928111 252.14693046 -90.74513332 252.14836632 -93.19311523 252.22460938 C-94.11079681 252.22507767 -95.02847839 252.22554596 -95.97396851 252.22602844 C-97.96237162 252.23145741 -99.95078155 252.25294 -101.93887138 252.28865051 C-105.08786025 252.3442669 -108.23435497 252.35625338 -111.38380432 252.35681152 C-119.20343914 252.36724725 -127.02192721 252.45304435 -134.84106445 252.53619385 C-141.45031034 252.60361329 -148.05853893 252.64258241 -154.6681385 252.64375305 C-157.76784749 252.65608786 -160.86502964 252.71027434 -163.96421814 252.76599121 C-165.86863767 252.77118334 -167.77306387 252.77442065 -169.67749023 252.77539062 C-170.53638351 252.80220413 -171.39527679 252.82901764 -172.28019714 252.85664368 C-175.77441015 252.82206383 -178.07335934 252.72556809 -180.88008308 250.52787781 C-183.5916331 247.52338213 -185.28626923 245.13381318 -185.8125 241.0625 C-185.10232958 232.85608625 -176.05653163 227.20415248 -170.37890625 222.16796875 C-164.65127824 217.27568524 -164.65127824 217.27568524 -161.53125 210.71484375 C-162.21670315 206.74492757 -164.58370418 204.29048529 -167.125 201.3125 C-190.4836277 172.70903821 -199.31568856 136.60125627 -195.71582031 100.12011719 C-192.20661028 74.80300134 -181.37477767 51.48124675 -165 32 C-164.26007813 31.10796875 -163.52015625 30.2159375 -162.7578125 29.296875 C-157.41131899 23.09418147 -151.48761101 17.97654959 -145 13 C-144.14792969 12.33226563 -143.29585937 11.66453125 -142.41796875 10.9765625 C-124.00974176 -2.98829935 -104.62137851 -10.21093194 -82 -14 C-80.33130859 -14.29390625 -80.33130859 -14.29390625 -78.62890625 -14.59375 C-51.4619136 -17.6350495 -24.14365175 -12.77695589 0 0 Z " fill="#FEFEFE" transform="translate(292,111)"/>
<path d="M0 0 C1.0209375 0.53238281 2.041875 1.06476563 3.09375 1.61328125 C32.60158764 17.88141805 55.84982995 46.74049415 65.21484375 79.09375 C67.90786529 88.80579235 67.90786529 88.80579235 68.203125 92.6328125 C69.43381489 96.2886854 72.33299905 97.7470181 75.4375 99.75 C99.86779639 116.35226792 116.94587539 141.98159158 123 171 C127.68687439 200.21709827 121.98525084 231.60423966 104.86328125 256.05078125 C103.6278894 257.68907103 102.36301095 259.30606187 101.0546875 260.88671875 C99.72030338 262.99725308 99.72030338 262.99725308 100.58203125 265.484375 C104.00877154 271.563771 109.21760963 276.5222218 114.484375 281.03515625 C115.07629639 281.54941162 115.66821777 282.06366699 116.27807617 282.59350586 C117.44562279 283.59556085 118.63040356 284.57796044 119.83325195 285.53735352 C122.0587036 287.44862375 123.80058719 289.10231792 124.45019531 292.02661133 C124.54612595 294.96769613 124.29353354 297.40957186 122.9765625 300.05859375 C118.21078828 304.92078536 118.21078828 304.92078536 115.03383446 305.12863445 C114.22315828 305.1303103 113.41248211 305.13198614 112.57723999 305.13371277 C111.64681381 305.13797775 110.71638763 305.14224274 109.75776672 305.14663696 C108.22130745 305.14595718 108.22130745 305.14595718 106.65380859 305.14526367 C105.57706375 305.14862228 104.50031891 305.1519809 103.39094543 305.15544128 C99.81009787 305.16498313 96.22929701 305.16689685 92.6484375 305.16796875 C90.15613791 305.17118206 87.6638385 305.17454619 85.17153931 305.17805481 C79.93076272 305.18405622 74.68999795 305.18593675 69.44921875 305.18530273 C62.76962754 305.18464043 56.09016022 305.19878489 49.41058922 305.21607494 C44.25262987 305.22726456 39.09469586 305.22921972 33.93672562 305.22869301 C31.47704323 305.22986531 29.01736002 305.23424449 26.55768967 305.24202538 C-11.59513003 305.35129545 -42.20957867 297.56825251 -70 270 C-78.13675575 261.55550008 -78.13675575 261.55550008 -79.96930027 258.25339508 C-81.58160277 255.48487279 -82.81389618 253.38364749 -85.95384026 252.36802673 C-88.3928111 252.14693046 -90.74513332 252.14836632 -93.19311523 252.22460938 C-94.11079681 252.22507767 -95.02847839 252.22554596 -95.97396851 252.22602844 C-97.96237162 252.23145741 -99.95078155 252.25294 -101.93887138 252.28865051 C-105.08786025 252.3442669 -108.23435497 252.35625338 -111.38380432 252.35681152 C-119.20343914 252.36724725 -127.02192721 252.45304435 -134.84106445 252.53619385 C-141.45031034 252.60361329 -148.05853893 252.64258241 -154.6681385 252.64375305 C-157.76784749 252.65608786 -160.86502964 252.71027434 -163.96421814 252.76599121 C-165.86863767 252.77118334 -167.77306387 252.77442065 -169.67749023 252.77539062 C-170.53638351 252.80220413 -171.39527679 252.82901764 -172.28019714 252.85664368 C-175.77441015 252.82206383 -178.07335934 252.72556809 -180.88008308 250.52787781 C-183.5916331 247.52338213 -185.28626923 245.13381318 -185.8125 241.0625 C-185.10232958 232.85608625 -176.05653163 227.20415248 -170.37890625 222.16796875 C-164.65127824 217.27568524 -164.65127824 217.27568524 -161.53125 210.71484375 C-162.21670315 206.74492757 -164.58370418 204.29048529 -167.125 201.3125 C-190.4836277 172.70903821 -199.31568856 136.60125627 -195.71582031 100.12011719 C-192.20661028 74.80300134 -181.37477767 51.48124675 -165 32 C-164.26007813 31.10796875 -163.52015625 30.2159375 -162.7578125 29.296875 C-157.41131899 23.09418147 -151.48761101 17.97654959 -145 13 C-144.14792969 12.33226563 -143.29585937 11.66453125 -142.41796875 10.9765625 C-124.00974176 -2.98829935 -104.62137851 -10.21093194 -82 -14 C-80.33130859 -14.29390625 -80.33130859 -14.29390625 -78.62890625 -14.59375 C-51.4619136 -17.6350495 -24.14365175 -12.77695589 0 0 Z M-85 8 C-86.12921875 8.2371875 -87.2584375 8.474375 -88.421875 8.71875 C-115.08478213 14.97764839 -141.06919009 31.72088793 -156 55 C-157.39930428 57.29953537 -158.71257531 59.63630874 -160 62 C-160.34998047 62.62874023 -160.69996094 63.25748047 -161.06054688 63.90527344 C-175.07762108 89.36666772 -179.41348002 118.56546526 -171.64160156 146.81396484 C-166.12292096 165.61695805 -157.1756703 183.30130529 -142.875 196.9375 C-139.12243379 201.20827773 -139.00178581 205.47127314 -139.32763672 211.00170898 C-139.8837853 215.40870704 -141.58408434 219.02339432 -143.5546875 222.96484375 C-143.88460693 223.64671753 -144.21452637 224.32859131 -144.55444336 225.03112793 C-145.35985302 226.69219433 -146.17854951 228.34680751 -147 230 C-134.64640959 230.06989339 -122.29286718 230.12300937 -109.93911839 230.15543652 C-104.20112117 230.17100964 -98.46326048 230.19209312 -92.7253418 230.22631836 C-87.17507039 230.25921246 -81.62492926 230.2769156 -76.07456779 230.28463173 C-73.97016287 230.29012182 -71.86576406 230.30084038 -69.76141548 230.31719017 C-53.24895732 230.44023638 -37.35012269 229.71312032 -22 223 C-21.37125977 222.73058594 -20.74251953 222.46117187 -20.09472656 222.18359375 C10.08306107 209.13526629 30.58023812 187.58439763 42.875 157.25 C50.48660957 136.30495021 52.08166917 111.53107068 46 90 C45.83371094 89.36481445 45.66742188 88.72962891 45.49609375 88.07519531 C38.18494239 60.27928096 19.76499233 36.25808658 -4.97265625 21.5859375 C-24.01554158 10.79229082 -44.29340702 5.82282379 -66.125 5.6875 C-66.97747314 5.68186035 -67.82994629 5.6762207 -68.70825195 5.67041016 C-74.37923502 5.73609937 -79.51445533 6.61278393 -85 8 Z " fill="#885C7C" transform="translate(292,111)"/>
<path d="M0 0 C18.2799987 14.85249895 30.27600895 36.50557722 33 60 C33.66775521 71.69736315 33.20658 82.68706589 30 94 C29.70996094 95.13501953 29.70996094 95.13501953 29.4140625 96.29296875 C26.08834343 107.80341202 19.51781382 118.68369871 12.88232422 128.57104492 C9.1315499 134.16382168 8.41592119 138.39782343 9 145 C10.28387059 150.74909698 12.54272564 155.27505837 16 160 C16.33 160.66 16.66 161.32 17 162 C6.14979472 162.11687291 -4.70025599 162.20520433 -15.55096722 162.25906086 C-20.59174332 162.28493524 -25.63208261 162.3199174 -30.67260742 162.37719727 C-35.55508908 162.43232131 -40.43715601 162.46158609 -45.31992531 162.47438622 C-47.16428961 162.48348433 -49.00863638 162.50124044 -50.85281944 162.52865028 C-77.48612401 162.90803228 -101.3185526 155.82282187 -120.9609375 137.2421875 C-123.36867765 134.87491357 -125.74559418 132.51376225 -128 130 C-128 129.67 -128 129.34 -128 129 C-126.99324219 128.90203125 -125.98648438 128.8040625 -124.94921875 128.703125 C-109.46089533 127.098185 -94.11317399 124.88313919 -80 118 C-78.71227009 117.39446637 -77.42450754 116.78900214 -76.13671875 116.18359375 C-43.64919291 100.6623769 -20.58407111 75.12566162 -7.8671875 41.4765625 C-3.0511335 27.72260647 -0.90321087 14.52268011 0 0 Z " fill="#FDFDFD" transform="translate(362,233)"/>
<path d="M0 0 C10.33937617 7.74179891 17.14101708 17.55578428 19.1328125 30.4921875 C20.51934084 43.38910193 16.81692581 55.57593095 8.78515625 65.8125 C2.7533107 72.29957918 -4.97169719 76.9009464 -13.62109375 78.78125 C-13.58628906 79.49410156 -13.55148438 80.20695312 -13.515625 80.94140625 C-13.31588402 88.00843231 -13.5454863 93.11417958 -18.24609375 98.71875 C-22.01660607 100.40555814 -25.57510405 100.56015711 -29.62109375 99.78125 C-33.19106587 97.10377091 -34.8465006 95.1161425 -35.62109375 90.78125 C-35.869615 86.8052865 -35.85222837 82.82670259 -35.87109375 78.84375 C-35.89171875 77.75900391 -35.91234375 76.67425781 -35.93359375 75.55664062 C-35.94132812 73.98366211 -35.94132812 73.98366211 -35.94921875 72.37890625 C-35.95856445 71.42508057 -35.96791016 70.47125488 -35.97753906 69.48852539 C-35.5502814 66.24341567 -34.54682144 64.40952422 -32.62109375 61.78125 C-29.37167223 59.61496899 -27.73942079 59.41219464 -23.93359375 58.96875 C-16.80610722 57.86558401 -12.19509196 55.4907218 -7.24609375 50.28125 C-2.99184163 43.73624674 -2.87585952 37.41282582 -3.62109375 29.78125 C-5.30689495 24.11816932 -9.79848061 19.96580256 -14.62109375 16.78125 C-20.49098564 14.43329324 -26.22168971 13.54044189 -32.2109375 15.7265625 C-38.74969417 18.77990262 -42.64252496 22.13675038 -45.62109375 28.78125 C-45.98091149 30.39643186 -46.29150159 32.02317222 -46.55859375 33.65625 C-47.33917824 37.79090848 -48.36474344 41.1710895 -50.62109375 44.78125 C-54.62811069 47.45259463 -57.90985671 47.60778281 -62.62109375 46.78125 C-65.90284693 44.25156526 -67.31353152 42.70393669 -68.62109375 38.78125 C-68.8453444 26.75180449 -66.31078599 16.75394885 -58.49609375 7.46875 C-42.687259 -8.8652952 -19.51300552 -12.77898275 0 0 Z " fill="#885C7C" transform="translate(252.62109375,167.21875)"/>
<path d="M0 0 C3.125 2 3.125 2 5 5 C5.83694703 9.06986004 5.40704679 12.1083737 3.6875 15.875 C1.72783727 18.34272344 0.07611882 19.80855564 -3.0859375 20.37109375 C-7.29035861 20.49306501 -9.41410531 20.39059646 -13 18 C-15.45642501 14.31536248 -16.46768671 11.43436288 -16 7 C-12.11105845 -0.37557879 -7.92091357 -1.0693855 0 0 Z " fill="#895C7D" transform="translate(233,283)"/>
</svg>
