<svg xmlns="http://www.w3.org/2000/svg" viewBox="0 0 71.44 58.27"><defs><style>.cls-1{fill:#875a7b;}</style></defs><title>favicon</title><g id="Layer_2" data-name="Layer 2"><g id="Layer_1-2" data-name="Layer 1"><path class="cls-1" d="M23.41,50.74a7.93,7.93,0,0,1-.56,1.2q-3.24,6.33-10.12,6.33A11.83,11.83,0,0,1,5.7,56Q0,51.86,0,43.15a18.37,18.37,0,0,1,3.3-11,13.13,13.13,0,0,1,11.11-5.63,12.51,12.51,0,0,1,8.79,3.31V13.69H16.73V11.86H31V55.73h3.3a5.56,5.56,0,0,1,.92.07c.56.15.84.73.84,1.76H24.26ZM8.93,47.58q1.41,7.59,6.61,7.59A5.71,5.71,0,0,0,19,54.05Q23.35,50.81,23.34,41a25.59,25.59,0,0,0-.63-6q-1.62-6.39-6.47-6.4a6,6,0,0,0-3.09.85Q8.5,32.19,8.51,42.3A30.55,30.55,0,0,0,8.93,47.58Z"/><path class="cls-1" d="M65.53,29.51q5.91,4.36,5.91,12.58a16,16,0,0,1-3.66,10.55,15.3,15.3,0,0,1-12.44,5.63,15.4,15.4,0,0,1-9.92-3.38q-5.76-4.64-5.76-12.8A15.31,15.31,0,0,1,43.17,32q4.65-5.49,12.66-5.49A15.81,15.81,0,0,1,65.53,29.51ZM48.87,50.39q1.4,6,6.68,6a7,7,0,0,0,3.16-.71Q63,53.42,63,42.09a35.06,35.06,0,0,0-.7-7.73q-1.41-6-6.75-6.05a6.92,6.92,0,0,0-3.59.92q-3.8,2.46-3.8,13.14A36.56,36.56,0,0,0,48.87,50.39Z"/><path class="cls-1" d="M22.8,2.46A4.46,4.46,0,0,1,27,0,5.09,5.09,0,0,1,29.2.49a4.36,4.36,0,0,1,2.6,4.22A4.94,4.94,0,0,1,31.23,7,4.43,4.43,0,0,1,27,9.56,4.62,4.62,0,0,1,24.84,9a4.59,4.59,0,0,1-2.61-4.29A4.64,4.64,0,0,1,22.8,2.46Z"/></g></g></svg>