<?xml version="1.0" encoding="UTF-8"?>
<svg version="1.1" xmlns="http://www.w3.org/2000/svg" width="512" height="512">
<path d="M0 0 C3.80908359 3.29802757 7.54857258 6.64693755 10.99365234 10.32568359 C10.99365234 10.98568359 10.99365234 11.64568359 10.99365234 12.32568359 C11.65365234 12.32568359 12.31365234 12.32568359 12.99365234 12.32568359 C14.77389132 14.32807205 16.42384444 16.33185446 18.05615234 18.45068359 C18.54567383 19.08304932 19.03519531 19.71541504 19.53955078 20.36694336 C38.02503765 44.57141521 49.94187085 73.5539704 50.23193359 104.32177734 C50.24000534 105.15475845 50.24807709 105.98773956 50.25639343 106.84596252 C50.27013433 108.59642516 50.28090048 110.34691345 50.28881836 112.09741211 C50.30036323 113.87288364 50.32085452 115.64831979 50.3503418 117.42358398 C50.66641509 136.50628833 50.66641509 136.50628833 45.99365234 143.32568359 C45.44064453 144.13521484 44.88763672 144.94474609 44.31787109 145.77880859 C37.94951569 152.7703205 31.98924729 157.93602786 22.1796875 158.48242188 C18.96943851 158.52211661 15.76623621 158.50021605 12.55615234 158.45068359 C11.44304687 158.44166016 10.32994141 158.43263672 9.18310547 158.42333984 C6.45306212 158.399906 3.72347225 158.3670976 0.99365234 158.32568359 C0.8205957 159.38299683 0.8205957 159.38299683 0.64404297 160.46166992 C-2.8539494 180.87411452 -12.67364121 199.27070269 -28.00634766 213.32568359 C-28.66634766 213.32568359 -29.32634766 213.32568359 -30.00634766 213.32568359 C-29.93678576 217.29148029 -29.84850337 221.25640473 -29.74389648 225.22143555 C-29.69483831 227.22276971 -29.66001628 229.22443665 -29.62548828 231.22607422 C-29.44423085 243.42119274 -29.44423085 243.42119274 -23.75634766 253.76318359 C-16.99042173 257.60745969 -9.38516475 258.03735512 -1.78048134 258.9270153 C0.29499984 259.17017008 2.36945222 259.42086126 4.44380188 259.67347717 C10.33768983 260.38972112 16.23330863 261.09130792 22.12915039 261.79125977 C25.74957407 262.22159861 29.36902809 262.65948205 32.98804665 263.10147285 C35.00998886 263.3460265 37.03282309 263.58182916 39.05583191 263.81736755 C57.54046937 266.07292 72.6906636 270.66315461 85.99365234 284.32568359 C86.61626953 284.91607422 87.23888672 285.50646484 87.88037109 286.11474609 C91.94196838 290.25848804 94.61050519 294.95607767 97.24365234 300.07568359 C97.57316895 300.70676025 97.90268555 301.33783691 98.2421875 301.98803711 C103.47820037 312.66762857 104.81637412 324.66896406 106.47412109 336.31787109 C106.69377713 337.83663615 106.91369733 339.35536303 107.13386536 340.87405396 C107.59100864 344.03848464 108.04332181 347.20356025 108.49243164 350.36914062 C109.06305279 354.3867524 109.64830599 358.40207688 110.23757458 362.41699028 C110.69491051 365.54764887 111.14301734 368.67957981 111.58864784 371.81192398 C111.80043509 373.29124407 112.01524386 374.77013542 112.2333889 376.24853134 C116.04232454 402.15926065 116.04232454 402.15926065 111.80615234 408.51318359 C107.0822448 413.23709114 103.91364302 414.70024128 97.21069431 414.70600033 C96.53812669 414.71066025 95.86555907 414.71532017 95.17261061 414.72012129 C92.91456334 414.73209062 90.65711562 414.7226688 88.39906311 414.71336365 C86.76559932 414.71753573 85.13213842 414.72301255 83.49868292 414.72968346 C79.00648256 414.74417331 74.51446511 414.73988233 70.02225459 414.73251665 C65.17894735 414.72779602 60.33568031 414.740285 55.49238586 414.75053406 C46.00268049 414.76774903 36.51304125 414.76855649 27.02332432 414.76332115 C19.31181689 414.75928331 11.60032904 414.76071842 3.88882256 414.76606941 C2.79218929 414.76681783 1.69555603 414.76756626 0.56569145 414.76833736 C-1.6619585 414.7698688 -3.88960844 414.77140715 -6.11725838 414.77295233 C-27.01778782 414.78668708 -47.91827985 414.78123278 -68.81880844 414.76976711 C-87.94892617 414.75983327 -107.07894719 414.7727763 -126.20904999 414.7967013 C-145.84208278 414.8210707 -165.4750705 414.83070552 -185.10811812 414.82404858 C-196.13451007 414.82055161 -207.16082763 414.82281991 -218.18720818 414.84029961 C-227.5735628 414.85499458 -236.95979064 414.85569248 -246.3461427 414.8382287 C-251.13675555 414.82969407 -255.92714167 414.82762904 -260.71774292 414.84288025 C-265.10165829 414.85666418 -269.48515133 414.85204579 -273.86904187 414.83264101 C-275.45647058 414.82886127 -277.04393261 414.83185948 -278.63133179 414.84225266 C-280.78724856 414.85536636 -282.94169551 414.84389188 -285.09754848 414.82625484 C-286.89449647 414.82609384 -286.89449647 414.82609384 -288.72774643 414.82592958 C-293.77428159 414.05593384 -296.83930569 411.49272556 -300.38134766 407.95068359 C-304.95719416 397.74302602 -301.34946687 383.61269121 -299.77587891 372.82568359 C-299.54080016 371.17535476 -299.30616477 369.52496271 -299.07194519 367.87451172 C-298.5817565 364.43796216 -298.08407695 361.0026004 -297.58129883 357.56787109 C-296.94384557 353.20675548 -296.32872354 348.84282151 -295.7196703 344.47766113 C-295.24175717 341.07513111 -294.75012293 337.67468392 -294.25473595 334.2746582 C-294.02259533 332.66805887 -293.79491372 331.06080759 -293.57215309 329.45288086 C-290.64102143 308.41321172 -283.65943529 291.45962946 -267.00634766 277.32568359 C-256.90752852 270.12943896 -246.31394335 266.6713345 -234.17431641 264.90380859 C-233.31190842 264.77635254 -232.44950043 264.64889648 -231.56095886 264.51757812 C-224.60362678 263.51094171 -217.63212038 262.64806897 -210.65087891 261.82568359 C-209.60153168 261.7020343 -208.55218445 261.57838501 -207.47103882 261.45098877 C-203.15526142 260.9449832 -198.83923529 260.44173805 -194.52172852 259.95068359 C-191.31371593 259.58424444 -188.10729023 259.20584612 -184.90087891 258.82568359 C-183.93825638 258.71933594 -182.97563385 258.61298828 -181.98384094 258.50341797 C-171.46501826 257.28206396 -171.46501826 257.28206396 -162.56884766 252.07568359 C-158.30865742 244.57774877 -158.54426944 236.76111362 -158.44384766 228.32568359 C-158.3694043 226.45783203 -158.3694043 226.45783203 -158.29345703 224.55224609 C-158.08472786 218.00982664 -158.08472786 218.00982664 -160.4440918 212.09643555 C-162.21183682 210.35774412 -164.05560316 208.85276178 -166.00634766 207.32568359 C-173.63317311 198.08807261 -179.95005198 188.56482885 -184.25634766 177.38818359 C-184.50280029 176.7562207 -184.74925293 176.12425781 -185.00317383 175.47314453 C-187.05366591 169.88514606 -188.06465816 164.19100604 -189.00634766 158.32568359 C-189.71130371 158.34663086 -190.41625977 158.36757812 -191.14257812 158.38916016 C-194.38868497 158.47317078 -197.63456205 158.52461056 -200.88134766 158.57568359 C-201.98994141 158.60919922 -203.09853516 158.64271484 -204.24072266 158.67724609 C-212.85065291 158.77853939 -219.32727447 157.15489064 -226.69384766 152.70068359 C-233.94501998 145.25353364 -238.10548338 137.81689495 -238.49072266 127.33740234 C-238.51578384 126.68142059 -238.54084503 126.02543884 -238.56666565 125.34957886 C-238.64199767 123.23763135 -238.70121278 121.12574965 -238.75634766 119.01318359 C-238.78720963 117.93180618 -238.78720963 117.93180618 -238.81869507 116.82858276 C-239.1082786 106.15351456 -239.04700535 95.84885895 -237.00634766 85.32568359 C-236.87599121 84.64086914 -236.74563477 83.95605469 -236.61132812 83.25048828 C-232.30636465 61.2717292 -223.21301803 39.76469732 -209.00634766 22.32568359 C-208.58208496 21.80280762 -208.15782227 21.27993164 -207.72070312 20.74121094 C-184.19482055 -8.09993321 -150.61092934 -29.5751841 -112.88574219 -33.45898438 C-71.08326229 -36.58513218 -32.60764864 -27.21139625 0 0 Z M-173.00634766 31.32568359 C-181.25278041 39.25718893 -191.53723856 50.72738942 -194.00634766 62.32568359 C-185.47788672 63.30243733 -185.47788672 63.30243733 -177.00634766 62.32568359 C-174.33886262 59.9801364 -173.26609283 57.78668757 -171.71728516 54.60302734 C-161.99705584 35.98368397 -140.36384591 24.41374581 -121.14306641 18.11474609 C-95.7585344 11.72909794 -68.77416385 14.05827764 -45.90869141 27.09130859 C-41.87779487 29.58688384 -38.05210182 32.18529932 -34.44384766 35.26318359 C-32.28405389 37.54099767 -32.28405389 37.54099767 -30.00634766 37.32568359 C-30.00634766 37.98568359 -30.00634766 38.64568359 -30.00634766 39.32568359 C-28.64087637 40.63607689 -28.64087637 40.63607689 -26.87353516 41.96630859 C-22.92329177 45.24192603 -20.0708758 48.8962986 -17.13134766 53.07568359 C-16.64666016 53.74728516 -16.16197266 54.41888672 -15.66259766 55.11083984 C-12.20194817 59.93448256 -12.20194817 59.93448256 -11.00634766 62.32568359 C-5.39634766 62.32568359 0.21365234 62.32568359 5.99365234 62.32568359 C4.30534887 57.07718212 4.30534887 57.07718212 1.74365234 52.62646484 C1.30537109 51.98008057 0.86708984 51.33369629 0.41552734 50.66772461 C-0.05369141 49.99797607 -0.52291016 49.32822754 -1.00634766 48.63818359 C-1.49619141 47.93556396 -1.98603516 47.23294434 -2.49072266 46.5090332 C-20.93634625 20.50747842 -46.12649368 6.74014624 -76.60400391 -0.27197266 C-112.5714885 -6.29579528 -146.88293835 6.98252464 -173.00634766 31.32568359 Z M-139.75634766 65.51318359 C-155.74316469 82.45573426 -158.19409773 101.67873271 -158.19165039 123.9128418 C-158.19383387 126.12422036 -158.21205291 128.33509597 -158.23095703 130.54638672 C-158.26642656 139.60525397 -157.84874447 148.41665251 -156.00634766 157.32568359 C-155.02557047 158.52618815 -155.02557047 158.52618815 -153.17771912 158.44593811 C-152.38051956 158.4437175 -151.58332001 158.44149689 -150.76196289 158.43920898 C-149.41067543 158.43909569 -149.41067543 158.43909569 -148.03208923 158.4389801 C-146.56335106 158.43123817 -146.56335106 158.43123817 -145.06494141 158.42333984 C-143.5688308 158.42121742 -143.5688308 158.42121742 -142.04249573 158.41905212 C-138.84291642 158.41343474 -135.64340597 158.4008793 -132.44384766 158.38818359 C-130.28043721 158.38317083 -128.11702566 158.37860754 -125.95361328 158.37451172 C-120.6378344 158.36345966 -115.32209595 158.34670463 -110.00634766 158.32568359 C-109.72662109 157.06498047 -109.44689453 155.80427734 -109.15869141 154.50537109 C-107.93007878 148.96812154 -104.61694956 146.3994182 -100.00634766 143.32568359 C-94.47657233 142.63944885 -89.54359426 142.62448339 -84.44384766 144.95068359 C-80.9886543 148.31728225 -79.2364104 151.58082104 -78.60229492 156.39013672 C-78.57034333 159.86942701 -78.54846754 163.34624265 -78.56884766 166.82568359 C-78.54886719 168.03611328 -78.52888672 169.24654297 -78.50830078 170.49365234 C-78.51373838 180.37921312 -78.51373838 180.37921312 -80.65869141 183.98193359 C-86.28823346 189.60210869 -91.90453133 189.78692182 -99.43603516 189.83740234 C-100.42636749 189.85535355 -101.41669983 189.87330475 -102.43704224 189.89179993 C-105.58510136 189.9457726 -108.73300998 189.97975715 -111.88134766 190.01318359 C-114.02199354 190.04636814 -116.16261959 190.08085885 -118.30322266 190.11669922 C-123.53746266 190.20149137 -128.77172246 190.26989624 -134.00634766 190.32568359 C-123.78392682 200.62944995 -110.81443021 205.80446816 -96.24853516 206.39208984 C-77.27708024 206.00351788 -61.50698349 199.3117718 -47.69384766 186.57568359 C-32.36289254 170.27236346 -29.61596316 150.26505007 -29.74560547 128.91894531 C-29.75634416 126.82636575 -29.74561897 124.73464409 -29.73291016 122.64208984 C-29.71848844 109.41021754 -30.65410534 96.59990713 -36.00634766 84.32568359 C-36.31958984 83.52001953 -36.63283203 82.71435547 -36.95556641 81.88427734 C-42.8180338 68.30689003 -55.51478006 57.20465873 -68.99365234 51.48193359 C-94.22529517 41.80072771 -119.96755298 47.04590089 -139.75634766 65.51318359 Z M-126.00634766 233.32568359 C-127.03949482 237.63117206 -127.20404592 241.0376891 -126.00634766 245.32568359 C-122.55862139 249.59332402 -117.63961 252.43910422 -113.03637695 255.31298828 C-110.81288714 256.70441359 -108.63968949 258.15580612 -106.46533203 259.62255859 C-105.07132436 260.53520701 -103.67491294 261.44419663 -102.27587891 262.34912109 C-101.62359818 262.78114838 -100.97131744 263.21317566 -100.29927063 263.65829468 C-96.63587726 265.93365748 -96.63587726 265.93365748 -92.46533203 265.81982422 C-91.24813477 265.08022461 -91.24813477 265.08022461 -90.00634766 264.32568359 C-88.97082764 263.73803223 -87.93530762 263.15038086 -86.8684082 262.54492188 C-83.7673861 260.65447828 -80.71140937 258.69525501 -77.66625977 256.71630859 C-76.35300811 255.87364284 -75.02892438 255.04762105 -73.69458008 254.23876953 C-65.61580052 249.66114568 -65.61580052 249.66114568 -61.15332031 242.01611328 C-61.15109881 238.99220242 -61.37992506 236.27949975 -62.00634766 233.32568359 C-62.98087891 233.61443359 -63.95541016 233.90318359 -64.95947266 234.20068359 C-84.91133226 239.61233663 -106.21599942 239.18949048 -126.00634766 233.32568359 Z " fill="#875A7B" transform="translate(350.00634765625,65.67431640625)"/>
<path d="M0 0 C1.4540625 1.22009766 1.4540625 1.22009766 2.9375 2.46484375 C4.0008453 3.37140528 5.06331638 4.27899302 6.125 5.1875 C6.95064453 5.89156982 6.95064453 5.89156982 7.79296875 6.60986328 C10.72850994 9.11464571 13.65734801 11.62708239 16.58203125 14.14453125 C21.53058716 18.40101925 26.5197854 22.60917006 31.50732422 26.81982422 C33.15408979 28.21209417 34.79810067 29.60755473 36.44140625 31.00390625 C39.14369295 33.29953816 41.85139774 35.58859569 44.56396484 37.87207031 C46.10372841 39.16957518 47.639783 40.4714774 49.17578125 41.7734375 C50.12839844 42.57007813 51.08101563 43.36671875 52.0625 44.1875 C52.89652344 44.88875 53.73054688 45.59 54.58984375 46.3125 C60.03484205 50.33961739 64.45427019 52.11361742 71.125 51.1875 C80.54264218 48.30454831 85.97731842 36.59212667 91 28.75 C91.58007812 27.85345703 92.16015625 26.95691406 92.7578125 26.03320312 C95.60501336 21.70497125 95.60501336 21.70497125 98.125 17.1875 C98.785 17.1875 99.445 17.1875 100.125 17.1875 C101.70971284 19.53409401 103.17908135 21.88198487 104.625 24.3125 C108.07328218 29.95169368 111.58687697 35.51943344 115.375 40.9375 C115.95604492 41.79432373 115.95604492 41.79432373 116.54882812 42.66845703 C119.63753059 47.02582704 123.10182282 50.54759416 128.46875 51.68359375 C129.1803125 51.66425781 129.891875 51.64492188 130.625 51.625 C131.69234375 51.62306641 131.69234375 51.62306641 132.78125 51.62109375 C139.21329066 50.43116623 143.61657147 46.28683017 148.3125 42.0625 C149.64738074 40.88291762 150.98332407 39.70453665 152.3203125 38.52734375 C152.97032227 37.9535498 153.62033203 37.37975586 154.29003906 36.78857422 C156.71043882 34.67668204 159.1898248 32.6446335 161.6875 30.625 C165.84981987 27.2519793 169.93859444 23.8055197 174 20.3125 C174.58885986 19.80614014 175.17771973 19.29978027 175.78442383 18.77807617 C176.97510329 17.75407556 178.16577712 16.7300684 179.35644531 15.70605469 C186.49962403 9.57262404 186.49962403 9.57262404 189.52001953 7.07983398 C191.99900821 5.03185901 194.33216653 2.97203353 196.5625 0.65234375 C200.29538659 -3.02379288 202.57377634 -4.7662662 207.92578125 -4.92578125 C211.61608008 -4.59378354 215.22725521 -3.9259848 218.86083984 -3.21484375 C221.83709612 -2.68595974 224.81302854 -2.41620268 227.82177734 -2.14379883 C239.53728879 -1.03422618 247.926104 1.48613732 256.8359375 9.3828125 C262.92954163 16.84903735 264.99165508 24.65933687 266.1875 34.0625 C266.34250977 35.17222168 266.49751953 36.28194336 266.65722656 37.42529297 C266.98602791 39.78455792 267.30797493 42.14478691 267.62353516 44.50585938 C268.13829991 48.28514488 268.69442101 52.05638759 269.26171875 55.828125 C269.63314947 58.32286652 270.00425188 60.81765695 270.375 63.3125 C270.55039307 64.47894043 270.72578613 65.64538086 270.90649414 66.84716797 C271.06625732 67.95205566 271.22602051 69.05694336 271.390625 70.1953125 C271.53274414 71.16098145 271.67486328 72.12665039 271.82128906 73.12158203 C272.1850442 76.79363748 272.125 80.49747168 272.125 84.1875 C257.275 84.1875 242.425 84.1875 227.125 84.1875 C226.8125 66.5625 226.8125 66.5625 226.73706055 61.03271484 C226.70474713 59.57126355 226.6713701 58.10983523 226.63671875 56.6484375 C226.62735291 55.52852417 226.62735291 55.52852417 226.61779785 54.38598633 C226.48765448 49.62037265 225.7014496 46.33661784 223.125 42.1875 C218.66323961 38.06037164 215.29705257 36.87170005 209.18359375 36.97265625 C204.61523683 37.44942974 201.82382274 39.41312886 198.8125 42.75 C190.91921765 54.15140784 195.49964923 70.32547833 195.125 84.1875 C131.765 84.1875 68.405 84.1875 3.125 84.1875 C2.795 72.3075 2.465 60.4275 2.125 48.1875 C-0.92232693 42.07740521 -0.92232693 42.07740521 -5.875 38.1875 C-10.90358199 36.511306 -15.21530411 36.58107265 -20.125 38.375 C-23.6927811 40.72649209 -25.96721079 43.37192157 -27.875 47.1875 C-28.03190703 49.95660131 -28.13350667 52.70502714 -28.19140625 55.4765625 C-28.21005737 56.20190186 -28.2287085 56.92724121 -28.2479248 57.67456055 C-28.31628272 60.38708176 -28.37639299 63.09980575 -28.4375 65.8125 C-28.581875 71.87625 -28.72625 77.94 -28.875 84.1875 C-43.725 84.1875 -58.575 84.1875 -73.875 84.1875 C-73.875 75.18426842 -73.875 75.18426842 -73.2800293 70.93994141 C-73.14956711 69.99180573 -73.01910492 69.04367004 -72.88468933 68.06680298 C-72.74098404 67.06764862 -72.59727875 66.06849426 -72.44921875 65.0390625 C-72.30096146 63.98649261 -72.15270416 62.93392273 -71.99995422 61.84945679 C-71.68581746 59.63198337 -71.36880342 57.41491587 -71.04907227 55.19824219 C-70.56521441 51.83138783 -70.09555412 48.46275744 -69.62695312 45.09375 C-69.31856938 42.92956463 -69.00935175 40.76549789 -68.69921875 38.6015625 C-68.56158615 37.6064566 -68.42395355 36.61135071 -68.28215027 35.58609009 C-66.3705647 22.54641691 -63.10880743 12.88103248 -52.578125 4.43359375 C-43.67764727 -2.07845303 -31.57406224 -2.21398324 -20.9375 -3.5 C-19.82826172 -3.64244141 -18.71902344 -3.78488281 -17.57617188 -3.93164062 C-15.97805664 -4.1259668 -15.97805664 -4.1259668 -14.34765625 -4.32421875 C-13.39125244 -4.44240967 -12.43484863 -4.56060059 -11.44946289 -4.68237305 C-6.29805483 -4.94275242 -3.88633737 -3.27798973 0 0 Z " fill="#F9F9F9" transform="translate(156.875,363.8125)"/>
<path d="M0 0 C0.51369141 0.39977051 1.02738281 0.79954102 1.55664062 1.21142578 C5.40247883 4.1584111 9.09943066 6.79695337 13.5 8.875 C14.3559375 9.28492188 15.211875 9.69484375 16.09375 10.1171875 C16.7228125 10.40851563 17.351875 10.69984375 18 11 C15.29450456 14.58853909 12.51731595 17.3977241 9 20.1875 C4.73538134 23.60610119 0.50485606 27.05610878 -3.6875 30.5625 C-4.48124023 31.22511841 -4.48124023 31.22511841 -5.29101562 31.90112305 C-6.52775633 32.93358802 -7.76394293 33.96671669 -9 35 C-12.58939481 31.69180202 -15.2128273 28.05260685 -17.875 24 C-18.30296875 23.38382812 -18.7309375 22.76765625 -19.171875 22.1328125 C-20.3671875 20.3125 -20.3671875 20.3125 -22 17 C-20.85842862 13.26212752 -18.64629436 11.80145213 -15.4296875 9.765625 C-14.53378906 9.19199219 -13.63789063 8.61835938 -12.71484375 8.02734375 C-11.77769531 7.44082031 -10.84054687 6.85429687 -9.875 6.25 C-8.93011719 5.64800781 -7.98523438 5.04601562 -7.01171875 4.42578125 C-4.67979709 2.9418311 -2.34258007 1.46704473 0 0 Z " fill="#F8F7F7" transform="translate(301,341)"/>
<path d="M0 0 C8.25975369 4.15172805 15.56659878 9.55447848 23 15 C21.37885498 19.79821659 18.70723241 23.6672859 15.875 27.8125 C15.40707031 28.50537109 14.93914062 29.19824219 14.45703125 29.91210938 C13.30887563 31.61091105 12.15500633 33.30584864 11 35 C6.13481349 31.92646153 1.8720176 28.43035227 -2.4375 24.625 C-3.7068714 23.51283836 -4.97640198 22.40085838 -6.24609375 21.2890625 C-6.86210449 20.74797852 -7.47811523 20.20689453 -8.11279297 19.64941406 C-11.05600901 17.07705086 -14.02782315 14.53881429 -17 12 C-13.31054971 9.12376961 -9.38467053 6.83565937 -5.33984375 4.5 C-3.24250642 3.15546321 -1.66632184 1.8356857 0 0 Z " fill="#F8F7F8" transform="translate(210,341)"/>
<path d="M0 0 C5.28 0 10.56 0 16 0 C15.67 10.56 15.34 21.12 15 32 C9.72 32 4.44 32 -1 32 C-1.02696855 27.60412565 -1.04682429 23.20841677 -1.0625 18.8125 C-1.07087891 17.56662109 -1.07925781 16.32074219 -1.08789062 15.03710938 C-1.09111328 13.83505859 -1.09433594 12.63300781 -1.09765625 11.39453125 C-1.10289307 10.28956299 -1.10812988 9.18459473 -1.11352539 8.04614258 C-1 5 -1 5 0 0 Z " fill="#F9F8F9" transform="translate(145,160)"/>
<path d="M0 0 C5.28 0 10.56 0 16 0 C16.66602604 4.66218227 17.12152348 8.54596926 17.09765625 13.15234375 C17.09443359 14.25771484 17.09121094 15.36308594 17.08789062 16.50195312 C17.07951172 17.63568359 17.07113281 18.76941406 17.0625 19.9375 C17.05798828 21.09830078 17.05347656 22.25910156 17.04882812 23.45507812 C17.0371066 26.3034078 17.01917323 29.15171074 17 32 C11.72 32 6.44 32 1 32 C0.67 21.44 0.34 10.88 0 0 Z " fill="#F9F9F9" transform="translate(351,160)"/>
</svg>
