<svg xmlns="http://www.w3.org/2000/svg" xmlns:xlink="http://www.w3.org/1999/xlink" width="256" zoomAndPan="magnify" viewBox="0 0 192 191.999996" height="256" preserveAspectRatio="xMidYMid meet" version="1.0"><defs><clipPath id="96e81620ed"><path d="M 159 113 L 191.734375 113 L 191.734375 138 L 159 138 Z M 159 113 " clip-rule="nonzero"/></clipPath><clipPath id="fd09439347"><path d="M 137 113 L 191.734375 113 L 191.734375 166 L 137 166 Z M 137 113 " clip-rule="nonzero"/></clipPath><clipPath id="afd2e7cc29"><path d="M 121 3.746094 L 190 3.746094 L 190 68 L 121 68 Z M 121 3.746094 " clip-rule="nonzero"/></clipPath><clipPath id="079d1bce8b"><path d="M 145 3.746094 L 166 3.746094 L 166 37 L 145 37 Z M 145 3.746094 " clip-rule="nonzero"/></clipPath></defs><path fill="#231378" d="M 42.804688 170.558594 C 40.238281 170.558594 38.152344 172.648438 38.152344 175.21875 C 38.152344 177.789062 40.242188 179.878906 42.804688 179.878906 C 45.371094 179.878906 47.464844 177.789062 47.464844 175.21875 C 47.464844 172.648438 45.375 170.558594 42.804688 170.558594 Z M 42.804688 170.558594 " fill-opacity="1" fill-rule="nonzero"/><g clip-path="url(#96e81620ed)"><path fill="#231378" d="M 159.6875 113.382812 L 159.6875 137.464844 L 191.949219 137.464844 L 191.949219 131.039062 L 177.519531 113.382812 Z M 159.6875 113.382812 " fill-opacity="1" fill-rule="nonzero"/></g><path fill="#231378" d="M 57.335938 175.214844 C 57.335938 167.203125 50.816406 160.683594 42.804688 160.683594 C 34.792969 160.683594 28.277344 167.203125 28.277344 175.214844 C 28.277344 183.226562 34.792969 189.746094 42.804688 189.746094 C 50.816406 189.746094 57.335938 183.226562 57.335938 175.214844 Z M 42.804688 183.515625 C 38.230469 183.515625 34.511719 179.789062 34.511719 175.214844 C 34.511719 170.640625 38.230469 166.914062 42.804688 166.914062 C 47.382812 166.914062 51.105469 170.640625 51.105469 175.214844 C 51.105469 179.789062 47.382812 183.515625 42.804688 183.515625 Z M 42.804688 183.515625 " fill-opacity="1" fill-rule="nonzero"/><path fill="#231378" d="M 103.304688 170.558594 C 100.734375 170.558594 98.648438 172.648438 98.648438 175.21875 C 98.648438 177.789062 100.738281 179.878906 103.304688 179.878906 C 105.871094 179.878906 107.960938 177.789062 107.960938 175.21875 C 107.960938 172.648438 105.871094 170.558594 103.304688 170.558594 Z M 103.304688 170.558594 " fill-opacity="1" fill-rule="nonzero"/><path fill="#231378" d="M 42.53125 130.511719 C 34.546875 130.511719 27.078125 128.351562 20.609375 124.628906 L 20.609375 145.527344 L 133.617188 145.527344 L 133.617188 80.988281 L 86.304688 80.988281 C 86.519531 82.757812 86.667969 84.546875 86.667969 86.375 C 86.667969 110.714844 66.871094 130.511719 42.53125 130.511719 Z M 122.171875 88.808594 C 122.171875 87.804688 122.988281 86.988281 123.992188 86.988281 C 124.996094 86.988281 125.8125 87.804688 125.8125 88.808594 L 125.8125 93.625 C 125.8125 94.628906 124.996094 95.445312 123.992188 95.445312 C 122.988281 95.445312 122.171875 94.628906 122.171875 93.625 Z M 122.171875 106.886719 C 122.171875 105.882812 122.988281 105.066406 123.992188 105.066406 C 124.996094 105.066406 125.8125 105.882812 125.8125 106.886719 L 125.8125 139.285156 C 125.8125 140.289062 124.996094 141.105469 123.992188 141.105469 L 29.589844 141.105469 C 28.585938 141.105469 27.769531 140.289062 27.769531 139.285156 C 27.769531 138.28125 28.585938 137.464844 29.589844 137.464844 L 122.175781 137.464844 L 122.175781 106.886719 Z M 122.171875 106.886719 " fill-opacity="1" fill-rule="nonzero"/><path fill="#231378" d="M 133.628906 165.199219 L 133.628906 149.167969 L 20.597656 149.167969 L 20.597656 165.199219 L 27.675781 165.199219 C 30.933594 160.292969 36.496094 157.046875 42.808594 157.046875 C 49.125 157.046875 54.683594 160.289062 57.941406 165.195312 L 88.171875 165.195312 C 91.429688 160.292969 96.992188 157.046875 103.308594 157.046875 C 109.621094 157.046875 115.183594 160.292969 118.441406 165.199219 L 133.632812 165.199219 Z M 133.628906 165.199219 " fill-opacity="1" fill-rule="nonzero"/><path fill="#231378" d="M 7.46875 88.191406 L 2.121094 88.191406 C 3.058594 109.070312 19.835938 125.84375 40.710938 126.78125 L 40.710938 121.433594 C 40.710938 120.429688 41.523438 119.613281 42.53125 119.613281 C 43.535156 119.613281 44.351562 120.429688 44.351562 121.433594 L 44.351562 126.78125 C 65.226562 125.84375 82 109.070312 82.9375 88.191406 L 77.589844 88.191406 C 76.585938 88.191406 75.769531 87.378906 75.769531 86.375 C 75.769531 85.367188 76.585938 84.554688 77.589844 84.554688 L 82.9375 84.554688 C 82 63.679688 65.226562 46.902344 44.351562 45.964844 L 44.351562 51.316406 C 44.351562 52.320312 43.535156 53.136719 42.53125 53.136719 C 41.523438 53.136719 40.710938 52.320312 40.710938 51.316406 L 40.710938 45.964844 C 19.835938 46.902344 3.058594 63.679688 2.121094 84.554688 L 7.46875 84.554688 C 8.472656 84.554688 9.289062 85.367188 9.289062 86.375 C 9.289062 87.378906 8.472656 88.191406 7.46875 88.191406 Z M 40.710938 66.335938 C 40.710938 65.332031 41.523438 64.515625 42.53125 64.515625 C 43.535156 64.515625 44.351562 65.332031 44.351562 66.335938 L 44.351562 84.011719 C 50.511719 87.714844 53.789062 89.695312 55.457031 90.914062 C 55.566406 90.933594 55.675781 90.96875 55.78125 91.007812 L 55.730469 91.121094 C 57.328125 92.339844 57.132812 92.730469 56.746094 93.511719 C 56.429688 94.148438 55.78125 94.519531 55.105469 94.519531 C 54.878906 94.519531 54.652344 94.480469 54.425781 94.386719 C 54.238281 94.3125 54.070312 94.214844 53.925781 94.089844 C 52.878906 93.40625 45.910156 89.203125 41.585938 86.601562 C 41.042969 86.269531 40.707031 85.683594 40.707031 85.042969 L 40.707031 66.335938 Z M 40.710938 66.335938 " fill-opacity="1" fill-rule="nonzero"/><path fill="#231378" d="M 169.261719 175.214844 C 169.261719 175.519531 169.234375 175.824219 169.175781 176.125 C 169.113281 176.421875 169.027344 176.714844 168.910156 176.996094 C 168.792969 177.28125 168.648438 177.550781 168.476562 177.804688 C 168.308594 178.058594 168.117188 178.292969 167.898438 178.507812 C 167.683594 178.726562 167.445312 178.917969 167.191406 179.089844 C 166.9375 179.257812 166.671875 179.402344 166.386719 179.519531 C 166.105469 179.636719 165.8125 179.726562 165.511719 179.785156 C 165.214844 179.84375 164.910156 179.875 164.605469 179.875 C 164.296875 179.875 163.996094 179.84375 163.695312 179.785156 C 163.394531 179.726562 163.105469 179.636719 162.820312 179.519531 C 162.539062 179.402344 162.269531 179.257812 162.015625 179.089844 C 161.761719 178.917969 161.527344 178.726562 161.308594 178.507812 C 161.09375 178.292969 160.898438 178.058594 160.730469 177.804688 C 160.558594 177.550781 160.417969 177.28125 160.300781 176.996094 C 160.183594 176.714844 160.09375 176.421875 160.035156 176.125 C 159.976562 175.824219 159.945312 175.519531 159.945312 175.214844 C 159.945312 174.910156 159.976562 174.605469 160.035156 174.304688 C 160.09375 174.003906 160.183594 173.714844 160.300781 173.433594 C 160.417969 173.148438 160.558594 172.878906 160.730469 172.625 C 160.898438 172.371094 161.09375 172.136719 161.308594 171.921875 C 161.527344 171.703125 161.761719 171.511719 162.015625 171.339844 C 162.269531 171.171875 162.539062 171.027344 162.820312 170.910156 C 163.105469 170.792969 163.394531 170.703125 163.695312 170.644531 C 163.996094 170.585938 164.296875 170.554688 164.605469 170.554688 C 164.910156 170.554688 165.214844 170.585938 165.511719 170.644531 C 165.8125 170.703125 166.105469 170.792969 166.386719 170.910156 C 166.671875 171.027344 166.9375 171.171875 167.191406 171.339844 C 167.445312 171.511719 167.683594 171.703125 167.898438 171.921875 C 168.117188 172.136719 168.308594 172.371094 168.476562 172.625 C 168.648438 172.878906 168.792969 173.148438 168.910156 173.433594 C 169.027344 173.714844 169.113281 174.003906 169.175781 174.304688 C 169.234375 174.605469 169.261719 174.910156 169.261719 175.214844 Z M 169.261719 175.214844 " fill-opacity="1" fill-rule="nonzero"/><g clip-path="url(#fd09439347)"><path fill="#231378" d="M 156.046875 139.285156 L 156.046875 113.382812 L 137.257812 113.382812 L 137.257812 147.285156 C 137.257812 147.308594 137.269531 147.324219 137.269531 147.347656 L 137.269531 165.199219 L 149.46875 165.199219 C 152.726562 160.292969 158.289062 157.046875 164.605469 157.046875 C 170.917969 157.046875 176.480469 160.292969 179.738281 165.199219 L 191.949219 165.199219 L 191.949219 141.105469 L 157.867188 141.105469 C 156.863281 141.105469 156.046875 140.289062 156.046875 139.285156 Z M 162.398438 149.425781 C 162.398438 150.429688 161.582031 151.246094 160.578125 151.246094 L 155.421875 151.246094 C 154.417969 151.246094 153.601562 150.429688 153.601562 149.425781 C 153.601562 148.421875 154.417969 147.605469 155.421875 147.605469 L 160.578125 147.605469 C 161.582031 147.605469 162.398438 148.421875 162.398438 149.425781 Z M 162.398438 149.425781 " fill-opacity="1" fill-rule="nonzero"/></g><path fill="#231378" d="M 179.136719 175.214844 C 179.136719 167.203125 172.617188 160.683594 164.605469 160.683594 C 156.59375 160.683594 150.074219 167.203125 150.074219 175.214844 C 150.074219 183.226562 156.59375 189.746094 164.605469 189.746094 C 172.617188 189.746094 179.136719 183.226562 179.136719 175.214844 Z M 156.304688 175.214844 C 156.304688 170.640625 160.027344 166.914062 164.605469 166.914062 C 169.179688 166.914062 172.902344 170.640625 172.902344 175.214844 C 172.902344 179.789062 169.179688 183.515625 164.605469 183.515625 C 160.027344 183.515625 156.304688 179.789062 156.304688 175.214844 Z M 156.304688 175.214844 " fill-opacity="1" fill-rule="nonzero"/><path fill="#231378" d="M 103.304688 160.6875 C 95.292969 160.6875 88.773438 167.207031 88.773438 175.21875 C 88.773438 183.230469 95.292969 189.75 103.304688 189.75 C 111.316406 189.75 117.835938 183.230469 117.835938 175.21875 C 117.835938 167.207031 111.316406 160.6875 103.304688 160.6875 Z M 103.304688 183.515625 C 98.726562 183.515625 95.007812 179.789062 95.007812 175.214844 C 95.007812 170.640625 98.726562 166.914062 103.304688 166.914062 C 107.878906 166.914062 111.601562 170.640625 111.601562 175.214844 C 111.601562 179.789062 107.878906 183.515625 103.304688 183.515625 Z M 103.304688 183.515625 " fill-opacity="1" fill-rule="nonzero"/><path fill="#231378" d="M 129.726562 55.082031 L 150.984375 55.082031 L 150.984375 61.742188 L 129.726562 61.742188 Z M 129.726562 55.082031 " fill-opacity="1" fill-rule="nonzero"/><g clip-path="url(#afd2e7cc29)"><path fill="#231378" d="M 126.984375 67.964844 L 183.847656 67.964844 C 186.875 67.964844 189.332031 65.503906 189.332031 62.484375 L 189.332031 9.3125 C 189.332031 6.339844 186.824219 3.828125 183.847656 3.828125 L 169.363281 3.828125 L 169.363281 39.78125 C 169.363281 40.785156 168.546875 41.601562 167.542969 41.601562 C 167.542969 41.601562 167.542969 41.601562 167.539062 41.601562 C 167.519531 41.601562 167.5 41.617188 167.480469 41.617188 C 167.414062 41.617188 167.351562 41.558594 167.285156 41.550781 C 167.0625 41.519531 166.855469 41.453125 166.660156 41.34375 C 166.574219 41.300781 166.476562 41.3125 166.394531 41.253906 L 155.402344 33.089844 L 144.40625 41.253906 C 144.363281 41.289062 144.308594 41.296875 144.261719 41.324219 C 144.148438 41.390625 144.035156 41.449219 143.90625 41.492188 C 143.769531 41.539062 143.636719 41.5625 143.496094 41.574219 C 143.445312 41.578125 143.40625 41.605469 143.355469 41.605469 C 143.320312 41.605469 143.296875 41.585938 143.261719 41.585938 C 143.078125 41.578125 142.898438 41.539062 142.722656 41.476562 C 142.683594 41.464844 142.648438 41.457031 142.609375 41.4375 C 142.421875 41.359375 142.257812 41.242188 142.105469 41.097656 C 142.085938 41.082031 142.070312 41.070312 142.050781 41.050781 C 141.992188 40.988281 141.917969 40.953125 141.867188 40.882812 C 141.78125 40.769531 141.75 40.644531 141.695312 40.523438 C 141.6875 40.507812 141.679688 40.496094 141.671875 40.476562 C 141.582031 40.257812 141.539062 40.035156 141.539062 39.808594 C 141.539062 39.800781 141.539062 39.796875 141.539062 39.789062 L 141.539062 39.726562 C 141.539062 39.652344 141.527344 39.582031 141.539062 39.507812 L 141.539062 3.828125 L 126.992188 3.828125 C 124.023438 3.828125 121.511719 6.335938 121.511719 9.3125 L 121.511719 62.480469 C 121.511719 62.996094 121.574219 63.476562 121.703125 63.875 C 122.382812 66.304688 124.554688 67.960938 126.996094 67.960938 Z M 182.242188 11.207031 C 182.242188 10.203125 183.058594 9.386719 184.0625 9.386719 C 185.070312 9.386719 185.882812 10.203125 185.882812 11.207031 L 185.882812 14.273438 C 185.882812 15.277344 185.070312 16.09375 184.0625 16.09375 C 183.058594 16.09375 182.242188 15.277344 182.242188 14.273438 Z M 182.242188 21.3125 C 182.242188 20.308594 183.058594 19.492188 184.0625 19.492188 C 185.070312 19.492188 185.882812 20.308594 185.882812 21.3125 L 185.882812 61.386719 C 185.882812 62.394531 185.070312 63.207031 184.0625 63.207031 C 183.058594 63.207031 182.242188 62.394531 182.242188 61.386719 Z M 126.085938 11.207031 C 126.085938 10.203125 126.902344 9.386719 127.90625 9.386719 C 128.910156 9.386719 129.726562 10.203125 129.726562 11.207031 L 129.726562 14.273438 C 129.726562 15.277344 128.910156 16.09375 127.90625 16.09375 C 126.902344 16.09375 126.085938 15.277344 126.085938 14.273438 Z M 126.085938 21.3125 C 126.085938 20.308594 126.902344 19.492188 127.90625 19.492188 C 128.910156 19.492188 129.726562 20.308594 129.726562 21.3125 L 129.726562 44.664062 C 129.726562 45.667969 128.910156 46.484375 127.90625 46.484375 C 126.902344 46.484375 126.085938 45.667969 126.085938 44.664062 Z M 126.085938 53.261719 C 126.085938 52.253906 126.902344 51.441406 127.90625 51.441406 L 152.804688 51.441406 C 153.808594 51.441406 154.625 52.253906 154.625 53.261719 L 154.625 63.5625 C 154.625 64.566406 153.808594 65.382812 152.804688 65.382812 L 127.90625 65.382812 C 126.902344 65.382812 126.085938 64.566406 126.085938 63.5625 Z M 126.085938 53.261719 " fill-opacity="1" fill-rule="nonzero"/></g><g clip-path="url(#079d1bce8b)"><path fill="#231378" d="M 156.488281 29.363281 L 165.722656 36.222656 L 165.722656 3.828125 L 145.171875 3.828125 L 145.171875 36.15625 L 154.316406 29.363281 C 154.960938 28.882812 155.839844 28.882812 156.488281 29.363281 Z M 156.488281 29.363281 " fill-opacity="1" fill-rule="nonzero"/></g></svg>