<svg xmlns="http://www.w3.org/2000/svg" xmlns:xlink="http://www.w3.org/1999/xlink" width="256" zoomAndPan="magnify" viewBox="0 0 192 191.999996" height="256" preserveAspectRatio="xMidYMid meet" version="1.0"><defs><clipPath id="a377f13874"><path d="M 0 4.199219 L 192 4.199219 L 192 187.949219 L 0 187.949219 Z M 0 4.199219 " clip-rule="nonzero"/></clipPath></defs><g clip-path="url(#a377f13874)"><path fill="#111d55" d="M 190.566406 37.058594 C 189.445312 35.78125 187.855469 35.007812 186.152344 35.007812 L 52.09375 35.007812 L 51.164062 27.886719 C 50.3125 21.304688 47.101562 15.308594 42.148438 10.933594 C 37.195312 6.597656 30.847656 4.199219 24.191406 4.199219 L 5.808594 4.199219 C 2.59375 4.199219 0.00390625 6.792969 0.00390625 10.003906 C 0.00390625 13.21875 2.59375 15.808594 5.808594 15.808594 L 24.191406 15.808594 C 32.125 15.808594 38.625 21.5 39.632812 29.355469 L 51.976562 123.824219 L 51.589844 123.863281 C 41.335938 124.753906 33.632812 133.539062 34.097656 143.792969 C 34.523438 154.089844 42.960938 162.140625 53.253906 162.140625 C 53.253906 162.140625 53.292969 162.140625 53.292969 162.140625 L 59.332031 162.140625 C 58.441406 164.304688 57.976562 166.667969 57.976562 169.144531 C 57.976562 179.4375 66.335938 187.796875 76.628906 187.796875 C 86.925781 187.796875 95.285156 179.4375 95.285156 169.144531 C 95.285156 166.628906 94.78125 164.265625 93.890625 162.101562 L 131.121094 162.023438 C 130.230469 164.191406 129.765625 166.550781 129.765625 169.027344 C 129.765625 179.320312 138.125 187.679688 148.421875 187.679688 C 158.714844 187.679688 167.074219 179.320312 167.074219 169.027344 C 167.074219 158.734375 158.714844 150.375 148.421875 150.375 L 53.371094 150.527344 C 49.308594 150.527344 45.980469 147.355469 45.824219 143.292969 C 45.628906 139.226562 48.6875 135.785156 52.714844 135.433594 L 161.230469 126.03125 C 171.71875 125.140625 179.847656 117.554688 181.511719 107.144531 L 191.960938 41.738281 C 192.152344 40.074219 191.6875 38.335938 190.566406 37.058594 Z M 76.628906 176.1875 C 72.761719 176.1875 69.585938 173.015625 69.585938 169.144531 C 69.585938 165.273438 72.722656 162.101562 76.628906 162.101562 C 80.5 162.101562 83.671875 165.234375 83.671875 169.144531 C 83.671875 173.015625 80.5 176.1875 76.628906 176.1875 Z M 155.386719 169.027344 C 155.386719 172.898438 152.25 176.070312 148.34375 176.070312 C 144.472656 176.070312 141.300781 172.898438 141.300781 169.027344 C 141.300781 165.15625 144.472656 161.984375 148.34375 161.984375 C 152.25 161.984375 155.386719 165.15625 155.386719 169.027344 Z M 85.570312 105.675781 C 85.375 105.675781 85.183594 105.710938 85.027344 105.710938 C 82.046875 105.710938 79.53125 103.46875 79.261719 100.449219 L 75.625 61.710938 C 75.3125 58.535156 77.675781 55.671875 80.847656 55.402344 C 84.023438 55.09375 86.886719 57.453125 87.15625 60.625 L 90.792969 99.367188 C 91.105469 102.578125 88.78125 105.402344 85.570312 105.675781 Z M 122.644531 99.90625 C 122.644531 103.121094 120.050781 105.710938 116.839844 105.710938 C 113.628906 105.710938 111.035156 103.121094 111.035156 99.90625 L 111.035156 61.167969 C 111.035156 57.957031 113.628906 55.363281 116.839844 55.363281 C 120.050781 55.363281 122.644531 57.957031 122.644531 61.167969 Z M 158.097656 61.710938 L 154.457031 100.449219 C 154.1875 103.46875 151.632812 105.710938 148.691406 105.710938 C 148.496094 105.710938 148.34375 105.710938 148.148438 105.675781 C 144.976562 105.363281 142.617188 102.539062 142.925781 99.367188 L 146.5625 60.625 C 146.871094 57.453125 149.699219 55.09375 152.871094 55.402344 C 156.042969 55.671875 158.40625 58.496094 158.097656 61.710938 Z M 158.097656 61.710938 " fill-opacity="1" fill-rule="nonzero"/></g></svg>