<svg xmlns="http://www.w3.org/2000/svg" xmlns:xlink="http://www.w3.org/1999/xlink" width="256" zoomAndPan="magnify" viewBox="0 0 192 191.999996" height="256" preserveAspectRatio="xMidYMid meet" version="1.0"><defs><clipPath id="6882b860c3"><path d="M 7.25 184 L 171 184 L 171 189.75 L 7.25 189.75 Z M 7.25 184 " clip-rule="nonzero"/></clipPath></defs><path fill="#111d55" d="M 13.335938 154.769531 L 36.832031 154.769531 L 36.832031 183.683594 L 13.335938 183.683594 Z M 13.335938 154.769531 " fill-opacity="1" fill-rule="nonzero"/><path fill="#111d55" d="M 56.777344 137.789062 L 80.277344 137.789062 L 80.277344 183.722656 L 56.777344 183.722656 Z M 56.777344 137.789062 " fill-opacity="1" fill-rule="nonzero"/><path fill="#111d55" d="M 100.222656 115.039062 L 123.722656 115.039062 L 123.722656 183.683594 L 100.222656 183.683594 Z M 100.222656 115.039062 " fill-opacity="1" fill-rule="nonzero"/><path fill="#111d55" d="M 143.707031 86.285156 L 167.207031 86.285156 L 167.207031 183.683594 L 143.707031 183.683594 Z M 143.707031 86.285156 " fill-opacity="1" fill-rule="nonzero"/><g clip-path="url(#6882b860c3)"><path fill="#111d55" d="M 166.972656 184.15625 L 10.804688 184.15625 C 8.871094 184.15625 7.25 185.378906 7.25 186.921875 C 7.25 188.460938 8.832031 189.683594 10.804688 189.683594 L 167.011719 189.683594 C 168.984375 189.683594 170.566406 188.421875 170.566406 186.921875 C 170.527344 185.417969 168.945312 184.15625 166.972656 184.15625 Z M 166.972656 184.15625 " fill-opacity="1" fill-rule="nonzero"/></g><path fill="#111d55" d="M 13.253906 133.046875 C 13.964844 133.046875 14.675781 132.773438 15.191406 132.257812 L 49.15625 98.964844 L 67.085938 117.566406 C 67.601562 118.121094 68.3125 118.394531 69.0625 118.433594 C 69.8125 118.433594 70.523438 118.160156 71.035156 117.605469 L 116.851562 71.792969 L 116.851562 85.851562 C 116.851562 87.390625 118.117188 88.617188 119.617188 88.617188 C 121.15625 88.617188 122.378906 87.390625 122.378906 85.851562 L 122.378906 65.117188 C 122.378906 64.839844 122.339844 64.5625 122.261719 64.328125 C 122.222656 64.246094 122.222656 64.167969 122.183594 64.089844 C 121.90625 63.378906 121.355469 62.824219 120.605469 62.511719 C 120.523438 62.46875 120.445312 62.46875 120.367188 62.429688 C 120.128906 62.351562 119.851562 62.3125 119.578125 62.3125 L 98.839844 62.3125 C 97.300781 62.3125 96.078125 63.535156 96.078125 65.078125 C 96.078125 66.617188 97.300781 67.84375 98.839844 67.84375 L 112.980469 67.84375 L 69.140625 111.683594 L 51.25 93.117188 C 50.734375 92.605469 50.023438 92.289062 49.273438 92.25 C 48.523438 92.25 47.8125 92.527344 47.300781 93.039062 L 11.320312 128.269531 C 10.214844 129.335938 10.214844 131.113281 11.28125 132.21875 C 11.832031 132.773438 12.542969 133.046875 13.253906 133.046875 Z M 13.253906 133.046875 " fill-opacity="1" fill-rule="nonzero"/><path fill="#111d55" d="M 153.226562 0.148438 C 135.847656 0.148438 121.710938 14.285156 121.710938 31.664062 C 121.710938 49.042969 135.847656 63.179688 153.226562 63.179688 C 170.605469 63.179688 184.742188 49.042969 184.742188 31.664062 C 184.742188 14.285156 170.605469 0.148438 153.226562 0.148438 Z M 153.226562 28.898438 C 159.980469 28.898438 165.46875 33.757812 165.46875 39.722656 C 165.46875 44.855469 161.402344 49.160156 155.992188 50.265625 L 155.992188 53.386719 C 155.992188 54.925781 154.726562 56.152344 153.226562 56.152344 C 151.6875 56.152344 150.460938 54.886719 150.460938 53.386719 L 150.460938 50.265625 C 145.050781 49.160156 140.984375 44.855469 140.984375 39.722656 C 140.984375 38.179688 142.246094 36.957031 143.746094 36.957031 C 145.289062 36.957031 146.511719 38.179688 146.511719 39.722656 C 146.511719 42.644531 149.515625 45.011719 153.1875 45.011719 C 156.859375 45.011719 159.863281 42.644531 159.863281 39.722656 C 159.863281 36.796875 156.859375 34.429688 153.1875 34.429688 C 146.433594 34.429688 140.945312 29.570312 140.945312 23.566406 C 140.945312 18.433594 145.011719 14.128906 150.421875 13.023438 L 150.421875 9.902344 C 150.421875 8.363281 151.648438 7.136719 153.1875 7.136719 C 154.726562 7.136719 155.953125 8.402344 155.953125 9.902344 L 155.953125 13.023438 C 161.363281 14.128906 165.429688 18.433594 165.429688 23.566406 C 165.429688 25.109375 164.207031 26.332031 162.667969 26.332031 C 161.125 26.332031 159.902344 25.109375 159.902344 23.566406 C 159.902344 20.644531 156.898438 18.273438 153.226562 18.273438 C 149.554688 18.273438 146.550781 20.644531 146.550781 23.566406 C 146.550781 26.53125 149.554688 28.898438 153.226562 28.898438 Z M 153.226562 28.898438 " fill-opacity="1" fill-rule="nonzero"/></svg>