<svg xmlns="http://www.w3.org/2000/svg" xmlns:xlink="http://www.w3.org/1999/xlink" width="256" zoomAndPan="magnify" viewBox="0 0 192 191.999996" height="256" preserveAspectRatio="xMidYMid meet" version="1.0"><defs><clipPath id="84a4ce0eab"><path d="M 4.371094 5.175781 L 188.871094 5.175781 L 188.871094 187 L 4.371094 187 Z M 4.371094 5.175781 " clip-rule="nonzero"/></clipPath></defs><g clip-path="url(#84a4ce0eab)"><path fill="#111d55" d="M 40.9375 80.25 C 42.027344 79.160156 43.785156 79.160156 44.863281 80.25 C 45.957031 81.332031 45.957031 83.085938 44.863281 84.179688 L 23.628906 105.414062 C 22.550781 106.496094 20.78125 106.496094 19.699219 105.414062 C 18.621094 104.324219 18.621094 102.566406 19.699219 101.488281 Z M 38.976562 94.59375 C 46.003906 94.59375 49.550781 103.132812 44.574219 108.109375 C 39.597656 113.085938 31.0625 109.539062 31.0625 102.511719 C 31.0625 98.140625 34.601562 94.59375 38.976562 94.59375 Z M 40.644531 100.847656 C 39.160156 99.375 36.613281 100.417969 36.613281 102.515625 C 36.613281 104.613281 39.160156 105.667969 40.644531 104.183594 C 41.566406 103.253906 41.566406 101.769531 40.644531 100.847656 Z M 26.222656 74.328125 C 33.25 74.328125 36.796875 82.863281 31.820312 87.84375 C 26.84375 92.820312 18.308594 89.273438 18.308594 82.246094 C 18.308594 77.875 21.855469 74.328125 26.222656 74.328125 Z M 27.886719 80.578125 C 26.414062 79.101562 23.867188 80.148438 23.867188 82.246094 C 23.867188 84.34375 26.414062 85.398438 27.886719 83.910156 C 28.8125 82.988281 28.8125 81.503906 27.886719 80.578125 Z M 32.175781 64.625 C 47.535156 64.625 59.992188 77.066406 59.992188 92.425781 C 59.992188 107.785156 47.539062 120.238281 32.175781 120.238281 C 16.828125 120.238281 4.375 107.785156 4.375 92.425781 C 4.375 77.066406 16.828125 64.625 32.175781 64.625 Z M 47.90625 76.691406 C 39.222656 68.011719 25.140625 68.011719 16.449219 76.691406 C 7.769531 85.382812 7.769531 99.46875 16.449219 108.152344 C 25.140625 116.84375 39.222656 116.84375 47.90625 108.152344 C 56.597656 99.472656 56.597656 85.386719 47.90625 76.691406 Z M 43.335938 40.054688 C 42.367188 41.246094 40.621094 41.441406 39.425781 40.480469 C 38.234375 39.523438 38.039062 37.78125 39.007812 36.585938 C 42.175781 32.65625 45.84375 28.871094 49.671875 25.585938 C 50.832031 24.597656 52.585938 24.734375 53.578125 25.890625 C 54.582031 27.050781 54.445312 28.808594 53.273438 29.800781 C 49.675781 32.882812 46.316406 36.363281 43.335938 40.054688 Z M 67.441406 20.09375 C 66.089844 20.8125 64.410156 20.296875 63.703125 18.945312 C 62.984375 17.59375 63.488281 15.914062 64.839844 15.207031 C 69.589844 12.660156 74.253906 10.691406 79.378906 9.09375 C 80.84375 8.644531 82.398438 9.457031 82.859375 10.917969 C 83.308594 12.382812 82.496094 13.949219 81.035156 14.398438 C 76.40625 15.835938 71.664062 17.828125 67.441406 20.09375 Z M 100.601562 10.9375 C 99.074219 11.003906 97.777344 9.8125 97.707031 8.292969 C 97.648438 6.761719 98.832031 5.464844 100.363281 5.394531 C 105.679688 5.15625 110.621094 5.382812 115.878906 6.09375 C 117.398438 6.296875 118.46875 7.695312 118.265625 9.214844 C 118.0625 10.730469 116.667969 11.804688 115.148438 11.589844 C 110.308594 10.9375 105.480469 10.710938 100.601562 10.9375 Z M 130.359375 15.261719 C 128.90625 14.753906 128.144531 13.183594 128.648438 11.726562 C 129.15625 10.285156 130.730469 9.519531 132.183594 10.027344 C 138.421875 12.210938 144.515625 15.207031 150.042969 18.796875 C 151.324219 19.632812 151.6875 21.34375 150.851562 22.628906 C 150.019531 23.910156 148.300781 24.285156 147.011719 23.449219 C 141.800781 20.058594 136.261719 17.320312 130.359375 15.261719 Z M 179.453125 111.914062 C 179.894531 110.449219 181.433594 109.605469 182.910156 110.042969 C 184.375 110.484375 185.214844 112.023438 184.78125 113.5 C 182.96875 119.542969 180.433594 125.433594 177.316406 130.871094 C 176.550781 132.199219 174.859375 132.675781 173.523438 131.910156 C 172.195312 131.140625 171.730469 129.441406 172.496094 128.117188 C 175.402344 123.027344 177.753906 117.554688 179.453125 111.914062 Z M 161.84375 142.605469 C 162.882812 141.480469 164.636719 141.414062 165.761719 142.460938 C 166.886719 143.503906 166.945312 145.261719 165.894531 146.375 C 161.917969 150.652344 157.414062 154.59375 152.632812 157.949219 C 151.382812 158.828125 149.648438 158.535156 148.773438 157.273438 C 147.894531 156.023438 148.1875 154.292969 149.445312 153.414062 C 153.984375 150.222656 158.070312 146.660156 161.84375 142.605469 Z M 134.269531 161.761719 C 135.6875 161.175781 137.308594 161.851562 137.882812 163.269531 C 138.46875 164.6875 137.792969 166.308594 136.375 166.882812 C 129.472656 169.730469 122.1875 171.671875 114.800781 172.578125 C 113.28125 172.757812 111.898438 171.679688 111.703125 170.160156 C 111.523438 168.628906 112.605469 167.246094 114.121094 167.0625 C 121.039062 166.207031 127.863281 164.40625 134.269531 161.761719 Z M 11.710938 144.453125 L 18.398438 138.835938 C 22.105469 135.730469 27.628906 136.222656 30.738281 139.929688 L 31.078125 140.320312 L 52.617188 121.96875 C 55.21875 119.75 58.339844 118.597656 61.75 119.105469 L 82.78125 122.214844 C 88.21875 123.011719 94.324219 125.523438 95.503906 130.847656 L 116.808594 115.628906 C 129.960938 106.226562 140.945312 118.847656 128.339844 130.222656 L 94.449219 160.800781 C 92.464844 162.59375 90.148438 163.527344 87.46875 163.628906 L 58.273438 164.710938 L 54.097656 167.945312 C 56.226562 171.589844 55.445312 176.308594 52.15625 179.078125 L 45.34375 184.785156 C 41.640625 187.890625 36.113281 187.40625 33.003906 183.707031 L 10.609375 157.019531 C 9 155.210938 8.300781 152.765625 8.492188 150.515625 C 8.679688 148.316406 9.851562 145.839844 11.710938 144.453125 Z M 34.632812 144.570312 L 50.609375 163.617188 L 55.585938 159.777344 C 56.027344 159.429688 56.574219 159.214844 57.175781 159.203125 L 87.257812 158.085938 C 88.609375 158.042969 89.726562 157.578125 90.726562 156.679688 L 124.617188 126.101562 C 127.375 123.601562 128.457031 121.371094 128.34375 119.761719 C 128.277344 118.847656 127.804688 118.308594 126.925781 118.039062 C 125.328125 117.566406 122.882812 118.09375 120.011719 120.144531 L 91.324219 140.636719 C 90.792969 141.085938 90.082031 141.324219 89.339844 141.265625 L 63.644531 139.082031 C 62.125 138.960938 60.988281 137.617188 61.109375 136.085938 C 61.234375 134.554688 62.578125 133.417969 64.105469 133.542969 L 88.527344 135.613281 C 90.5625 133.398438 90.859375 131.496094 88.132812 129.75 C 86.667969 128.804688 84.574219 128.09375 81.972656 127.710938 L 60.941406 124.605469 C 59.128906 124.335938 57.605469 124.996094 56.222656 126.179688 Z M 21.953125 143.101562 L 15.152344 148.8125 C 13.8125 149.933594 13.632812 151.984375 14.757812 153.328125 L 37.257812 180.136719 C 38.382812 181.484375 40.445312 181.65625 41.785156 180.527344 L 48.585938 174.820312 C 49.925781 173.695312 50.109375 171.632812 48.980469 170.292969 L 26.480469 143.484375 C 25.351562 142.144531 23.296875 141.980469 21.953125 143.101562 Z M 170.996094 42.261719 L 182.558594 42.261719 C 185.933594 42.261719 188.683594 45.011719 188.683594 48.375 L 188.683594 87.492188 C 188.683594 90.859375 185.933594 93.605469 182.558594 93.605469 L 170.996094 93.605469 C 167.628906 93.605469 164.871094 90.855469 164.871094 87.492188 L 164.871094 84.269531 C 163.722656 83.855469 162.585938 83.609375 161.472656 83.503906 C 159.972656 83.371094 158.5 83.535156 157.070312 83.988281 C 151.902344 86.21875 147.183594 87.414062 142.90625 87.578125 C 138.390625 87.757812 134.394531 86.78125 130.890625 84.664062 C 129.636719 83.910156 128.378906 83.300781 127.097656 82.839844 C 122.433594 95.675781 110.195312 104.4375 96.289062 104.4375 C 78.183594 104.4375 63.511719 89.765625 63.511719 71.671875 C 63.511719 53.566406 78.183594 38.894531 96.289062 38.894531 C 99.011719 38.894531 101.671875 39.230469 104.203125 39.863281 C 126.53125 27.589844 138.457031 34.4375 151.742188 42.070312 C 155.867188 44.433594 160.121094 46.890625 164.871094 48.761719 C 164.871094 46.859375 165.34375 45.371094 166.675781 44.054688 C 167.777344 42.949219 169.308594 42.261719 170.996094 42.261719 Z M 164.871094 78.472656 L 164.871094 54.679688 C 145.089844 47.71875 135.289062 31.675781 111.261719 42.519531 C 119.113281 46.5625 125.089844 53.652344 127.667969 62.234375 C 131.921875 63.550781 138.351562 62.257812 142.890625 61.3125 C 144.386719 61 145.851562 61.957031 146.167969 63.460938 C 146.480469 64.957031 145.515625 66.425781 144.015625 66.738281 C 140.660156 67.449219 137.191406 68.101562 133.882812 68.292969 C 130.507812 68.480469 127.308594 68.191406 124.5625 66.996094 C 112.75 65.554688 104.992188 67.265625 101.457031 69.898438 C 99.8125 71.128906 99.363281 72.097656 100.804688 73.34375 C 104.5 76.507812 113.367188 76.644531 118.742188 76.269531 C 124.191406 75.898438 129.058594 77.082031 133.761719 79.929688 C 136.308594 81.457031 139.277344 82.171875 142.703125 82.035156 C 146.292969 81.898438 150.359375 80.84375 154.910156 78.867188 C 155.019531 78.8125 155.148438 78.765625 155.269531 78.734375 C 158.433594 77.710938 161.664062 77.648438 164.871094 78.472656 Z M 182.5625 47.816406 L 171 47.816406 C 170.695312 47.816406 170.4375 48.074219 170.4375 48.378906 L 170.4375 87.496094 C 170.4375 87.800781 170.695312 88.0625 171 88.0625 L 182.5625 88.0625 C 182.867188 88.0625 183.128906 87.800781 183.128906 87.496094 L 183.128906 48.378906 C 183.121094 48.074219 182.863281 47.816406 182.5625 47.816406 Z M 121.554688 81.785156 C 120.757812 81.753906 119.945312 81.761719 119.113281 81.820312 C 114.359375 82.144531 110.316406 81.96875 106.972656 81.414062 C 105.769531 84.792969 102.605469 87.125 99.054688 87.902344 L 99.023438 89.996094 C 99.023438 91.535156 97.773438 92.777344 96.246094 92.777344 C 94.703125 92.777344 93.464844 91.535156 93.464844 89.996094 L 93.464844 87.890625 C 89.21875 86.945312 85.546875 83.746094 85.140625 79.332031 C 85.007812 77.8125 86.125 76.460938 87.652344 76.328125 C 89.175781 76.179688 90.523438 77.308594 90.660156 78.824219 C 90.972656 82.25 97.011719 84.085938 100.464844 81.257812 C 100.914062 80.894531 101.277344 80.46875 101.527344 80.003906 C 98.507812 78.855469 95.785156 77 94.769531 74.195312 C 89.78125 73.203125 85.097656 71.851562 85.097656 64.792969 C 85.097656 60.027344 88.914062 56.457031 93.464844 55.445312 L 93.464844 53.339844 C 93.464844 51.785156 94.679688 50.558594 96.335938 50.558594 L 96.335938 50.570312 C 97.902344 50.582031 99.140625 51.855469 99.105469 53.394531 L 99.046875 55.433594 C 102.597656 56.199219 105.738281 58.519531 106.964844 61.871094 C 110.863281 61.050781 115.679688 60.710938 121.367188 61.117188 C 117.214844 51.199219 107.292969 44.453125 96.292969 44.453125 C 81.261719 44.453125 69.078125 56.636719 69.078125 71.667969 C 69.078125 86.6875 81.261719 98.871094 96.292969 98.871094 C 107.535156 98.875 117.460938 92.007812 121.554688 81.785156 Z M 95.273438 68.632812 C 96.558594 66.289062 98.980469 64.636719 101.613281 63.507812 C 100.214844 60.515625 94.980469 59.714844 92.101562 62.078125 C 91.210938 62.808594 90.660156 63.765625 90.660156 64.792969 C 90.660156 67.246094 92.789062 68.070312 95.273438 68.632812 Z M 95.273438 68.632812 " fill-opacity="1" fill-rule="nonzero"/></g></svg>